<?xml version="1.0" encoding="utf-8"?>
<!-- Generator: Adobe Illustrator 16.0.0, SVG Export Plug-In . SVG Version: 6.00 Build 0)  -->
<!DOCTYPE svg PUBLIC "-//W3C//DTD SVG 1.1//EN" "http://www.w3.org/Graphics/SVG/1.1/DTD/svg11.dtd">
<svg version="1.1" id="Livello_1" xmlns="http://www.w3.org/2000/svg" xmlns:xlink="http://www.w3.org/1999/xlink" x="0px" y="0px"
	 width="150px" height="150px" viewBox="0 0 150 150" enable-background="new 0 0 150 150" xml:space="preserve">
<g>
	<g>
		<path d="M21,43.024h27.65c7.537,0,12.896,2.235,16.082,6.705c1.869,2.641,2.804,5.687,2.804,9.142
			c0,4.034-1.146,7.342-3.438,9.925c-1.19,1.365-2.902,2.612-5.137,3.745c3.279,1.248,5.732,2.655,7.356,4.222
			c2.874,2.787,4.309,6.633,4.309,11.537c0,4.121-1.3,7.852-3.898,11.188c-3.885,4.99-10.06,7.488-18.527,7.488H21V43.024z
			 M45.413,70.058c3.696,0,6.569-0.507,8.623-1.523c3.224-1.596,4.838-4.47,4.838-8.621c0-4.178-1.716-6.993-5.146-8.445
			c-1.937-0.812-4.812-1.219-8.623-1.219H29.488v19.806h15.924V70.058z M48.341,99.572c5.361,0,9.184-1.537,11.469-4.613
			c1.436-1.945,2.153-4.295,2.153-7.053c0-4.641-2.095-7.807-6.284-9.488c-2.227-0.902-5.17-1.35-8.832-1.35H29.488v22.504H48.341z"
			/>
	</g>
	<g>
		<path d="M96.012,43.024h9.778L129,106.975h-9.49l-6.675-19.156H87.747l-6.936,19.156h-8.88L96.012,43.024z M110.377,80.768
			l-9.847-28.251L90.299,80.768H110.377z"/>
	</g>
</g>
</svg>
