<?xml version="1.0" encoding="utf-8"?>
<!-- Generator: Adobe Illustrator 16.0.0, SVG Export Plug-In . SVG Version: 6.00 Build 0)  -->
<!DOCTYPE svg PUBLIC "-//W3C//DTD SVG 1.1//EN" "http://www.w3.org/Graphics/SVG/1.1/DTD/svg11.dtd">
<svg version="1.1" id="Livello_1" xmlns="http://www.w3.org/2000/svg" xmlns:xlink="http://www.w3.org/1999/xlink" x="0px" y="0px"
	 width="150px" height="150px" viewBox="-4.134 -34.34 150 150" enable-background="new -4.134 -34.34 150 150"
	 xml:space="preserve">
<g id="Livello_1_1_">
</g>
<g>
	<path d="M65.777,18.027c-21.699,2.521-38.544,20.961-38.544,43.334h87.264C114.5,38.988,97.658,20.548,75.96,18.027L75.947,5.566
		h5.531c0.781,0,1.415-0.634,1.415-1.417c0-0.782-0.634-1.419-1.415-1.419H60.26c-0.782,0-1.414,0.637-1.414,1.419
		c0,0.783,0.632,1.417,1.414,1.417h5.46"/>
	<path d="M124.217,71.038c0-4.171-3.381-7.558-7.553-7.558H25.066c-4.168,0-7.552,3.382-7.552,7.558
		c0,4.172-7.865,7.552-3.694,7.552h114.091C132.086,78.592,124.217,75.21,124.217,71.038z"/>
</g>
</svg>
