<?xml version="1.0" encoding="utf-8"?>
<!-- Generator: Adobe Illustrator 16.0.0, SVG Export Plug-In . SVG Version: 6.00 Build 0)  -->
<!DOCTYPE svg PUBLIC "-//W3C//DTD SVG 1.1//EN" "http://www.w3.org/Graphics/SVG/1.1/DTD/svg11.dtd">
<svg version="1.1" id="Livello_1" xmlns="http://www.w3.org/2000/svg" xmlns:xlink="http://www.w3.org/1999/xlink" x="0px" y="0px"
	 width="150px" height="150px" viewBox="0 0 150 150" enable-background="new 0 0 150 150" xml:space="preserve">
<g>
	<g>
		<path d="M21,44.144h26.684c7.272,0,12.446,2.156,15.519,6.47c1.805,2.548,2.707,5.489,2.707,8.822
			c0,3.894-1.106,7.086-3.319,9.578c-1.148,1.316-2.8,2.521-4.957,3.613c3.164,1.205,5.531,2.562,7.099,4.074
			c2.773,2.689,4.16,6.4,4.16,11.133c0,3.978-1.255,7.576-3.762,10.797c-3.749,4.817-9.708,7.226-17.88,7.226H21V44.144z
			 M44.559,70.231c3.566,0,6.339-0.489,8.321-1.47c3.112-1.54,4.669-4.312,4.669-8.318c0-4.033-1.656-6.75-4.966-8.15
			c-1.868-0.784-4.642-1.176-8.321-1.176h-15.07v19.114H44.559z M47.385,98.714c5.174,0,8.863-1.483,11.068-4.452
			c1.384-1.876,2.077-4.145,2.077-6.806c0-4.481-2.021-7.533-6.063-9.157c-2.15-0.869-4.991-1.303-8.524-1.303H29.191v21.718H47.385
			z"/>
	</g>
	<g>
		<path d="M80.396,44.144h8.443v25.5h31.718v-25.5H129v61.713h-8.443v-28.86H88.839v28.86h-8.443V44.144z"/>
	</g>
</g>
</svg>
