<?xml version="1.0" encoding="utf-8"?>
<!-- Generator: Adobe Illustrator 16.0.0, SVG Export Plug-In . SVG Version: 6.00 Build 0)  -->
<!DOCTYPE svg PUBLIC "-//W3C//DTD SVG 1.1//EN" "http://www.w3.org/Graphics/SVG/1.1/DTD/svg11.dtd">
<svg version="1.1" id="Livello_1" xmlns="http://www.w3.org/2000/svg" xmlns:xlink="http://www.w3.org/1999/xlink" x="0px" y="0px"
	 width="150px" height="150px" viewBox="0 0 150 150" enable-background="new 0 0 150 150" xml:space="preserve">
<path fill="#fefef6" d="M128.588,85.306V31.718c0-0.558-0.204-1.041-0.612-1.449c-0.407-0.408-0.891-0.612-1.449-0.612H23.474
	c-0.559,0-1.041,0.204-1.449,0.612c-0.408,0.408-0.612,0.891-0.612,1.449v53.587c0,0.559,0.204,1.041,0.612,1.451
	c0.408,0.406,0.891,0.611,1.449,0.611h103.053c0.559,0,1.042-0.205,1.449-0.611C128.384,86.347,128.588,85.864,128.588,85.306z
	 M136.832,31.718v70.076c0,2.836-1.01,5.26-3.027,7.279c-2.019,2.016-4.444,3.027-7.278,3.027H91.488c0,1.588,0.344,3.252,1.03,4.99
	c0.688,1.738,1.375,3.264,2.062,4.574c0.687,1.309,1.03,2.242,1.03,2.801c0,1.117-0.407,2.082-1.224,2.898s-1.781,1.223-2.898,1.223
	H58.512c-1.117,0-2.083-0.406-2.898-1.223c-0.816-0.816-1.224-1.781-1.224-2.898c0-0.602,0.343-1.545,1.03-2.834
	c0.687-1.287,1.374-2.791,2.061-4.51c0.688-1.717,1.031-3.391,1.031-5.021H23.474c-2.834,0-5.261-1.012-7.278-3.027
	c-2.018-2.02-3.027-4.443-3.027-7.279V31.718c0-2.833,1.01-5.26,3.027-7.278s4.444-3.027,7.278-3.027h103.053
	c2.834,0,5.26,1.009,7.278,3.027C135.822,26.458,136.832,28.885,136.832,31.718z"/>
</svg>
