<?xml version="1.0" encoding="utf-8"?>
<!-- Generator: Adobe Illustrator 16.0.0, SVG Export Plug-In . SVG Version: 6.00 Build 0)  -->
<!DOCTYPE svg PUBLIC "-//W3C//DTD SVG 1.1//EN" "http://www.w3.org/Graphics/SVG/1.1/DTD/svg11.dtd">
<svg version="1.1" id="Livello_1" xmlns="http://www.w3.org/2000/svg" xmlns:xlink="http://www.w3.org/1999/xlink" x="0px" y="0px"
	 width="150px" height="150px" viewBox="-4.134 -34.34 150 150" enable-background="new -4.134 -34.34 150 150"
	 xml:space="preserve">
<g id="Livello_26">
	<path fill="#fefef6" d="M62.595,78.107c0-0.562,0.447-1.014,1.008-1.014h14.524c0.562,0,1.013,0.45,1.013,1.014c0,0.561-0.451,1.014-1.013,1.014
		H63.603C63.045,79.12,62.595,78.667,62.595,78.107 M121.003,71.664H20.315V4.219h100.688V71.664L121.003,71.664z M141.024,78.603
		c0-1.5-1.213-2.717-2.707-2.717v-0.192h-14.363c0.732-0.328,1.246-1.063,1.246-1.923V2.107c0-1.164-0.938-2.107-2.1-2.107H18.216
		c-1.154,0-2.097,0.943-2.097,2.107V73.77c0,0.854,0.513,1.595,1.245,1.923H3.414v0.188C1.92,75.88,0.708,77.098,0.708,78.6
		s1.212,2.72,2.706,2.72h134.903C139.813,81.318,141.024,80.103,141.024,78.603"/>
</g>
<g id="Livello_1_1_">
</g>
</svg>
