<?xml version="1.0" encoding="utf-8"?>
<!-- Generator: Adobe Illustrator 16.0.0, SVG Export Plug-In . SVG Version: 6.00 Build 0)  -->
<!DOCTYPE svg PUBLIC "-//W3C//DTD SVG 1.1//EN" "http://www.w3.org/Graphics/SVG/1.1/DTD/svg11.dtd">
<svg version="1.1" id="Livello_1" xmlns="http://www.w3.org/2000/svg" xmlns:xlink="http://www.w3.org/1999/xlink" x="0px" y="0px"
	 width="150px" height="150px" viewBox="-4.134 -34.34 150 150" enable-background="new -4.134 -34.34 150 150"
	 xml:space="preserve">
<g id="Livello_1_1_">
</g>
<g>
	<path fill="#fefef6" d="M66.909,23.063c-16.871,1.96-29.967,16.297-29.967,33.691h67.846c0.002-17.395-13.092-31.731-29.961-33.691l-0.012-9.688
		h4.301c0.607,0,1.102-0.493,1.102-1.103c0-0.607-0.494-1.103-1.102-1.103H62.62c-0.607,0-1.1,0.495-1.1,1.103
		c0,0.609,0.492,1.103,1.1,1.103h4.245"/>
	<path fill="#fefef6" d="M112.344,64.278c0-3.243-2.629-5.876-5.871-5.876H35.257c-3.24,0-5.871,2.63-5.871,5.876c0,3.243-6.115,5.871-2.872,5.871
		h88.704C118.464,70.151,112.344,67.521,112.344,64.278z"/>
</g>
<circle fill="none" stroke="#4C4C4C" stroke-width="10" stroke-miterlimit="10" cx="70.866" cy="40.66" r="62.875"/>
<line fill="none" stroke="#4C4C4C" stroke-width="10" stroke-miterlimit="10" x1="22.699" y1="0.246" x2="119.149" y2="80.934"/>
</svg>
