<?xml version="1.0" encoding="utf-8"?>
<!-- Generator: Adobe Illustrator 16.0.0, SVG Export Plug-In . SVG Version: 6.00 Build 0)  -->
<!DOCTYPE svg PUBLIC "-//W3C//DTD SVG 1.1//EN" "http://www.w3.org/Graphics/SVG/1.1/DTD/svg11.dtd">
<svg version="1.1" id="Livello_1" xmlns="http://www.w3.org/2000/svg" xmlns:xlink="http://www.w3.org/1999/xlink" x="0px" y="0px"
	 width="150px" height="150px" viewBox="0 0 150 150" enable-background="new 0 0 150 150" xml:space="preserve">
<g>
	<g>
		<path fill="#fefef6" stroke="#fefef6" stroke-width="3" stroke-miterlimit="10" d="M136.664,77.217c-0.021-0.135-0.005-0.27-0.048-0.403
			l-10.739-32.217c-0.371-1.09-1.396-1.831-2.551-1.831H64.261c-0.032,0-0.064,0.016-0.102,0.021l-8.618-9.848
			c-1.021-1.17-3.023-1.17-4.043,0l-11.4,13.026v-5.885c0-1.482-1.203-2.685-2.685-2.685H26.674c-1.482,0-2.685,1.203-2.685,2.685
			v24.163c0,0.037,0.021,0.07,0.021,0.107l-10.1,11.545c-0.108,0.123-0.151,0.269-0.231,0.402c-0.086,0.14-0.177,0.264-0.236,0.413
			c-0.081,0.21-0.102,0.425-0.129,0.645c-0.011,0.107-0.064,0.199-0.064,0.312v37.586c0,1.482,1.203,2.686,2.685,2.686h118.13
			c1.482,0,2.685-1.203,2.685-2.686V77.668C136.75,77.506,136.691,77.373,136.664,77.217z M121.394,48.135l8.95,26.848H92.333
			L68.841,48.135H121.394L121.394,48.135z M29.359,42.765h5.37v8.054c0,0.371,0.075,0.725,0.209,1.042l-5.579,6.379V42.765z
			 M61.576,112.57H45.468v-8.055c0-4.441,3.613-8.055,8.054-8.055c4.441,0,8.055,3.613,8.055,8.055V112.57z M120.642,112.57H93.794
			v-5.369h26.848V112.57z M120.642,101.83H93.794v-5.369h26.848V101.83z M131.38,112.57h-5.369V93.775
			c0-1.48-1.202-2.684-2.685-2.684H91.109c-1.482,0-2.686,1.203-2.686,2.684v18.795H66.946v-8.055c0-7.4-6.025-13.424-13.424-13.424
			c-7.399,0-13.424,6.023-13.424,13.424v8.055H18.62V78.672l34.902-39.886L89.09,79.434c0.017,0.021,0.043,0.027,0.064,0.049
			c0.204,0.22,0.446,0.386,0.714,0.525c0.06,0.033,0.107,0.092,0.172,0.119c0.328,0.145,0.688,0.225,1.069,0.225h40.271V112.57z
			 M69.63,69.613H37.413c-1.482,0-2.685,1.203-2.685,2.685v10.739c0,1.481,1.203,2.686,2.685,2.686H69.63
			c1.482,0,2.685-1.204,2.685-2.686V72.298C72.315,70.816,71.112,69.613,69.63,69.613z M66.946,80.352H40.098v-5.369h26.848V80.352z
			"/>
	</g>
</g>
</svg>
