<?xml version="1.0" encoding="utf-8"?>
<!-- Generator: Adobe Illustrator 15.0.0, SVG Export Plug-In . SVG Version: 6.00 Build 0)  -->
<!DOCTYPE svg PUBLIC "-//W3C//DTD SVG 1.1//EN" "http://www.w3.org/Graphics/SVG/1.1/DTD/svg11.dtd">
<svg version="1.1" id="Layer_2" xmlns="http://www.w3.org/2000/svg" xmlns:xlink="http://www.w3.org/1999/xlink" x="0px" y="0px"
	 width="12.817px" height="14.29px" viewBox="0 0 12.817 14.29" enable-background="new 0 0 12.817 14.29" xml:space="preserve">
<path fill-rule="evenodd" clip-rule="evenodd" fill="#644D4C" d="M12.016,13.098c0,0.165-0.119,0.298-0.266,0.298H1.068
	c-0.146,0-0.266-0.133-0.266-0.298V2.528c0-0.163,0.119-0.296,0.266-0.296h1.737v0.895c0,0.246,0.178,0.444,0.398,0.444
	c0.221,0,0.401-0.198,0.401-0.444V2.232h2.404v0.895c0,0.246,0.18,0.444,0.401,0.444c0.221,0,0.401-0.198,0.401-0.444V2.232h2.401
	v0.895c0,0.246,0.18,0.444,0.4,0.444c0.222,0,0.401-0.198,0.401-0.444V2.232h1.737c0.146,0,0.266,0.133,0.266,0.296V13.098z
	 M11.75,1.338h-1.737V0.446C10.013,0.2,9.833,0,9.611,0c-0.221,0-0.4,0.2-0.4,0.446v0.892H6.81V0.446C6.81,0.2,6.629,0,6.409,0
	C6.188,0,6.008,0.2,6.008,0.446v0.892H3.604V0.446C3.604,0.2,3.424,0,3.203,0C2.982,0,2.805,0.2,2.805,0.446v0.892H1.068
	C0.479,1.338,0,1.872,0,2.528v10.569c0,0.658,0.479,1.192,1.068,1.192H11.75c0.588,0,1.067-0.534,1.067-1.192V2.528
	C12.817,1.872,12.338,1.338,11.75,1.338z"/>
<g>
	<rect x="8.421" y="9.857" fill-rule="evenodd" clip-rule="evenodd" fill="#654E4E" width="1.602" height="1.339"/>
	<rect x="5.655" y="9.857" fill-rule="evenodd" clip-rule="evenodd" fill="#654E4E" width="1.602" height="1.339"/>
	<rect x="2.795" y="9.857" fill-rule="evenodd" clip-rule="evenodd" fill="#654E4E" width="1.602" height="1.339"/>
</g>
<g>
	<rect x="8.421" y="7.586" fill-rule="evenodd" clip-rule="evenodd" fill="#654E4E" width="1.602" height="1.338"/>
	<rect x="5.655" y="7.586" fill-rule="evenodd" clip-rule="evenodd" fill="#654E4E" width="1.602" height="1.338"/>
	<rect x="2.795" y="7.586" fill-rule="evenodd" clip-rule="evenodd" fill="#654E4E" width="1.602" height="1.338"/>
</g>
<g>
	<rect x="8.421" y="5.378" fill-rule="evenodd" clip-rule="evenodd" fill="#654E4E" width="1.602" height="1.339"/>
	<rect x="5.655" y="5.378" fill-rule="evenodd" clip-rule="evenodd" fill="#654E4E" width="1.602" height="1.339"/>
	<rect x="2.795" y="5.378" fill-rule="evenodd" clip-rule="evenodd" fill="#654E4E" width="1.602" height="1.339"/>
</g>
</svg>
