<?xml version="1.0" encoding="utf-8"?>
<!-- Generator: Adobe Illustrator 15.0.0, SVG Export Plug-In . SVG Version: 6.00 Build 0)  -->
<!DOCTYPE svg PUBLIC "-//W3C//DTD SVG 1.1//EN" "http://www.w3.org/Graphics/SVG/1.1/DTD/svg11.dtd">
<svg version="1.1" id="Layer_1" xmlns="http://www.w3.org/2000/svg" xmlns:xlink="http://www.w3.org/1999/xlink" x="0px" y="0px"
	 width="21px" height="22px" viewBox="0 0 21 22" enable-background="new 0 0 21 22" xml:space="preserve">
<path fill-rule="evenodd" clip-rule="evenodd" fill="#644D4C" d="M1.497,8.425c0-3.786,3.032-6.876,6.775-6.876
	c3.73,0,6.775,3.077,6.775,6.876s-3.032,6.876-6.775,6.876C4.529,15.301,1.497,12.211,1.497,8.425z M14.336,14.123
	c1.359-1.494,2.207-3.495,2.207-5.698c0-4.621-3.705-8.395-8.271-8.395C3.706,0.03,0,3.804,0,8.425c0,4.622,3.706,8.396,8.272,8.396
	c1.859,0,3.568-0.62,4.953-1.671l6.151,6.242c0.149,0.151,0.337,0.228,0.524,0.228c0.187,0,0.387-0.076,0.523-0.228
	c0.287-0.291,0.287-0.772,0-1.076L14.336,14.123z"/>
</svg>
