<?xml version="1.0" encoding="utf-8"?>
<svg xmlns="http://www.w3.org/2000/svg" width="22.189px" height="16.802px" viewBox="0 0 22.189 16.802" enable-background="new 0 0 22.189 16.802" xml:space="preserve">
<path fill-rule="evenodd" clip-rule="evenodd" fill="#ba1010" d="M22.178,2.849c0.032,0.128,0,0.273-0.097,0.434l-2.656,3.96
	c-0.096,0.16-0.257,0.241-0.482,0.241c-0.096,0-0.177-0.017-0.241-0.049l-2.124-0.482v9.366c0,0.322-0.178,0.483-0.531,0.483H5.665
	c-0.322,0-0.483-0.161-0.483-0.483V6.952L3.251,7.435C3.026,7.531,2.849,7.467,2.72,7.242l-2.656-3.96
	C0,3.154-0.016,3.025,0.016,2.896c0.032-0.161,0.129-0.273,0.29-0.338L5.665,0h2.511c0.322,0,0.483,0.16,0.483,0.482
	c0,0.482,0.266,0.894,0.796,1.231c0.531,0.338,1.079,0.507,1.642,0.507c0.563,0,1.119-0.169,1.666-0.507s0.82-0.749,0.82-1.231
	C13.583,0.16,13.744,0,14.066,0h2.511l5.311,2.51C22.049,2.574,22.146,2.688,22.178,2.849z"/>
</svg>
