<?xml version="1.0" encoding="utf-8"?>
<!-- Generator: Adobe Illustrator 16.0.0, SVG Export Plug-In . SVG Version: 6.00 Build 0)  -->
<!DOCTYPE svg PUBLIC "-//W3C//DTD SVG 1.1//EN" "http://www.w3.org/Graphics/SVG/1.1/DTD/svg11.dtd">
<svg version="1.1" id="Layer_1" xmlns="http://www.w3.org/2000/svg" xmlns:xlink="http://www.w3.org/1999/xlink" x="0px" y="0px"
	 width="44.323px" height="44.323px" viewBox="0 0 44.323 44.323" enable-background="new 0 0 44.323 44.323" xml:space="preserve">
<circle fill-rule="evenodd" clip-rule="evenodd" fill="#FCD20D" cx="22.162" cy="22.161" r="22.161"/>
<path fill-rule="evenodd" clip-rule="evenodd" fill="#FFFFFA" d="M22.733,37.901c-0.192,0-0.383-0.049-0.55-0.143
	c-1.396-0.789-2.74-1.703-3.995-2.717c-0.478-0.385-0.551-1.084-0.165-1.561s1.086-0.551,1.564-0.164
	c0.995,0.803,2.05,1.539,3.145,2.191c3.797-2.268,7.068-5.512,9.256-9.195c1.923-3.236,2.867-6.647,2.465-8.901
	c-0.346-1.938-1.502-2.127-1.881-2.189c-0.428-0.07-1.729-0.283-3.236,1.877c-1.068,1.53-1.619,3.383-1.719,3.738
	c-0.161,0.576-0.751,0.922-1.335,0.78c-0.583-0.143-0.948-0.72-0.825-1.306c0.401-1.914,0.725-5.592-0.613-7.233
	c-0.484-0.596-1.174-0.885-2.11-0.885c-0.938,0-1.629,0.289-2.113,0.885c-1.337,1.642-1.014,5.319-0.613,7.233
	c0.123,0.586-0.242,1.163-0.825,1.306c-0.583,0.142-1.174-0.203-1.335-0.78c-0.1-0.355-0.649-2.208-1.718-3.738
	c-1.507-2.159-2.808-1.946-3.236-1.877c-0.706,0.116-1.209,0.483-1.539,1.125c-0.895,1.738-0.386,5.055,1.297,8.448
	c0.272,0.549,0.047,1.215-0.503,1.486c-0.551,0.271-1.218,0.047-1.49-0.502c-2.046-4.125-2.525-8.031-1.282-10.446
	c0.656-1.274,1.748-2.07,3.158-2.302c1.315-0.215,3.206,0.023,4.993,2.228c0.167-1.308,0.566-2.595,1.368-3.58
	c0.908-1.115,2.234-1.705,3.837-1.705c1.605,0,2.932,0.59,3.839,1.705c0.803,0.984,1.201,2.272,1.369,3.58
	c1.787-2.204,3.678-2.442,4.992-2.228c1.964,0.322,3.316,1.776,3.712,3.991c0.499,2.796-0.526,6.692-2.741,10.422
	c-2.488,4.186-6.26,7.848-10.621,10.312C23.114,37.852,22.925,37.901,22.733,37.901"/>
<path fill-rule="evenodd" clip-rule="evenodd" fill="#FFFFFA" d="M16.914,29.918c0,1.074-0.884,1.957-1.961,1.957
	s-1.961-0.883-1.961-1.957s0.884-1.957,1.961-1.957S16.914,28.844,16.914,29.918"/>
</svg>
