<?xml version="1.0" encoding="utf-8"?>
<!-- Generator: Adobe Illustrator 16.0.0, SVG Export Plug-In . SVG Version: 6.00 Build 0)  -->
<!DOCTYPE svg PUBLIC "-//W3C//DTD SVG 1.1//EN" "http://www.w3.org/Graphics/SVG/1.1/DTD/svg11.dtd">
<svg version="1.1" xmlns="http://www.w3.org/2000/svg" xmlns:xlink="http://www.w3.org/1999/xlink" x="0px" y="0px" width="299px"
	 height="47.58px" viewBox="0 0 299 47.58" enable-background="new 0 0 299 47.58" xml:space="preserve">
<g id="Layer_0_xA0_Image_1_">
</g>
<g id="Group_1_1_">
	<g id="HomeAround1_1_">
		<g id="Home_Around">
			<g>
				<path fill="#BA1010" d="M85.981,27.008c-0.438,0-1.081-0.059-1.49-0.117c-0.876-0.117-1.051-0.76-1.139-1.578
					c-0.146-1.256-0.146-3.563-0.146-6.25v-5.14c0-4.439,0-5.257,0.058-6.192c0.058-1.022,0.292-1.519,1.081-1.665
					c0.351-0.058,0.613-0.087,0.847-0.087c0.35,0,0.525-0.059,0.525-0.263c0-0.205-0.205-0.263-0.613-0.263
					c-1.139,0-2.979,0.088-3.68,0.088c-0.789,0-2.628-0.088-4.206-0.088c-0.409,0-0.613,0.059-0.613,0.263
					c0,0.204,0.175,0.263,0.496,0.263c0.409,0,0.905,0.029,1.139,0.087c0.964,0.205,1.198,0.672,1.256,1.665
					c0.058,0.935,0.058,1.752,0.058,6.192v0.613c0,0.146-0.087,0.205-0.175,0.205H68.224c-0.088,0-0.175-0.059-0.175-0.205v-0.613
					c0-4.439,0-5.257,0.058-6.192c0.059-1.022,0.292-1.519,1.081-1.665c0.351-0.058,0.613-0.087,0.847-0.087
					c0.351,0,0.526-0.059,0.526-0.263c0-0.205-0.205-0.263-0.613-0.263c-1.139,0-2.979,0.088-3.68,0.088
					c-0.789,0-2.629-0.088-4.206-0.088c-0.409,0-0.614,0.059-0.614,0.263c0,0.204,0.175,0.263,0.497,0.263
					c0.409,0,0.905,0.029,1.139,0.087c0.964,0.205,1.197,0.672,1.256,1.665c0.059,0.935,0.059,1.752,0.059,6.192v5.14
					c0,2.687,0,4.994-0.146,6.221c-0.117,0.847-0.263,1.49-0.847,1.606c-0.263,0.058-0.613,0.117-1.051,0.117
					c-0.351,0-0.467,0.087-0.467,0.234c0,0.204,0.204,0.292,0.584,0.292c1.168,0,3.008-0.088,3.68-0.088
					c0.817,0,2.658,0.088,4.556,0.088c0.35,0,0.584-0.088,0.584-0.292c0-0.146-0.146-0.234-0.467-0.234
					c-0.438,0-1.081-0.059-1.49-0.117c-0.876-0.117-1.051-0.76-1.139-1.578c-0.146-1.256-0.146-3.563-0.146-6.25v-2.57
					c0-0.146,0.087-0.175,0.175-0.175h11.157c0.087,0,0.175,0.058,0.175,0.175v2.57c0,2.687,0,4.994-0.146,6.221
					c-0.117,0.847-0.263,1.49-0.847,1.606c-0.263,0.058-0.613,0.117-1.051,0.117c-0.351,0-0.467,0.087-0.467,0.234
					c0,0.204,0.204,0.292,0.613,0.292c1.139,0,2.979-0.088,3.65-0.088c0.818,0,2.658,0.088,4.557,0.088
					c0.351,0,0.584-0.088,0.584-0.292C86.449,27.096,86.303,27.008,85.981,27.008z M100.174,8.403
					c-7.798,0-10.777,5.491-10.777,9.726c0,4.41,3.037,9.726,10.514,9.726c6.63,0,10.777-4.469,10.777-10.164
					C110.688,11.996,106.658,8.403,100.174,8.403z M100.962,26.512c-4.849,0-7.769-4.03-7.769-9.142
					c0-6.133,3.358-7.652,6.221-7.652c4.147,0,7.447,3.388,7.447,8.879C106.862,25.665,102.773,26.512,100.962,26.512z
					 M138.696,27.008c-0.322,0-0.73-0.029-1.46-0.233c-0.789-0.234-1.022-0.906-1.256-2.454l-2.336-15.333
					c-0.087-0.525-0.38-0.789-0.584-0.789c-0.233,0-0.467,0.204-0.672,0.613l-6.893,14.019l-6.893-13.844
					c-0.35-0.672-0.525-0.789-0.789-0.789c-0.204,0-0.438,0.233-0.496,0.643l-2.542,16.21c-0.116,0.817-0.35,1.811-1.051,1.898
					c-0.409,0.059-0.584,0.059-0.788,0.059c-0.263,0-0.409,0.117-0.409,0.234c0,0.233,0.204,0.292,0.467,0.292
					c0.818,0,2.044-0.088,2.541-0.088c0.467,0,1.635,0.088,2.716,0.088c0.38,0,0.613-0.059,0.613-0.292
					c0-0.117-0.175-0.234-0.409-0.234c-0.233,0-0.467-0.029-0.905-0.117c-0.438-0.088-0.789-0.263-0.789-0.73
					c0-0.409,0.029-0.73,0.087-1.168l1.227-9.697h0.087c0.847,1.724,2.366,4.849,2.57,5.316c0.292,0.701,2.337,4.498,2.95,5.637
					c0.409,0.759,0.701,1.256,1.022,1.256c0.292,0,0.438-0.234,1.022-1.402l5.521-11.099h0.087l1.431,10.748
					c0.087,0.701,0.029,0.993-0.117,1.051c-0.175,0.059-0.292,0.146-0.292,0.263c0,0.146,0.146,0.263,0.759,0.292
					c1.022,0.058,4.673,0.175,5.316,0.175c0.379,0,0.672-0.088,0.672-0.292C139.104,27.096,138.929,27.008,138.696,27.008z
					 M154.057,23.62c-0.176,0-0.234,0.117-0.292,0.38c-0.176,1.022-0.468,1.548-1.11,1.84c-0.672,0.292-1.753,0.322-2.424,0.322
					c-2.629,0-3.418-0.38-3.477-2.074c-0.029-0.73,0-2.833,0-3.68v-1.986c0-0.146,0.03-0.263,0.146-0.263
					c0.643,0,3.563,0.059,4.03,0.117c0.964,0.088,1.285,0.467,1.431,0.964c0.06,0.321,0.06,0.643,0.089,0.906
					c0,0.117,0.058,0.204,0.234,0.204c0.232,0,0.262-0.35,0.262-0.555c0-0.175,0.059-1.168,0.116-1.665
					c0.146-1.256,0.205-1.665,0.205-1.811s-0.088-0.263-0.205-0.263c-0.116,0-0.204,0.146-0.408,0.321
					c-0.233,0.263-0.613,0.321-1.227,0.38c-0.585,0.058-3.914,0.058-4.498,0.058c-0.146,0-0.176-0.117-0.176-0.262v-6.134
					c0-0.146,0.059-0.234,0.176-0.234c0.525,0,3.593,0.059,4.03,0.117c1.285,0.117,1.49,0.467,1.694,0.905
					c0.146,0.292,0.175,0.73,0.175,0.905c0,0.205,0.029,0.321,0.205,0.321c0.203,0,0.263-0.292,0.292-0.409
					c0.059-0.292,0.116-1.373,0.146-1.636c0.059-1.139,0.205-1.431,0.205-1.606c0-0.117-0.029-0.234-0.176-0.234
					c-0.116,0-0.264,0.088-0.409,0.117c-0.204,0.029-0.612,0.117-1.08,0.146c-0.496,0.029-6.192,0-7.009,0
					c-0.73,0-2.366-0.058-3.71-0.058c-0.38,0-0.584,0.058-0.584,0.233s0.175,0.263,0.438,0.263c0.38,0,0.817,0.029,1.022,0.088
					c0.817,0.233,1.052,0.497,1.109,1.343c0.029,0.789,0.029,1.49,0.029,5.257v4.381c0,2.278,0,4.235-0.116,5.287
					c-0.088,0.73-0.233,1.197-0.76,1.314c-0.233,0.058-0.525,0.087-0.905,0.087c-0.321,0-0.409,0.146-0.409,0.263
					c0,0.175,0.175,0.263,0.497,0.263c0.525,0,1.168-0.029,1.781-0.059c0.613,0,1.169-0.029,1.461-0.029
					c0.759,0,1.723,0.029,2.979,0.059c1.256,0.058,2.804,0.087,4.731,0.087c0.964,0,1.198,0,1.373-0.643
					c0.146-0.496,0.351-2.19,0.351-2.745C154.29,23.942,154.261,23.62,154.057,23.62z M186.473,27.008
					c-0.35,0-0.788-0.029-1.227-0.117c-0.612-0.146-1.46-0.555-2.569-3.184c-1.87-4.439-6.543-16.356-7.244-17.962
					c-0.292-0.671-0.467-0.935-0.729-0.935c-0.292,0-0.468,0.321-0.818,1.168l-7.33,18.342c-0.585,1.46-1.14,2.454-2.483,2.628
					c-0.233,0.029-0.642,0.059-0.905,0.059c-0.233,0-0.351,0.059-0.351,0.234c0,0.233,0.176,0.292,0.555,0.292
					c1.52,0,3.125-0.088,3.447-0.088c0.905,0,2.161,0.088,3.096,0.088c0.321,0,0.496-0.059,0.496-0.292
					c0-0.175-0.088-0.234-0.438-0.234h-0.438c-0.905,0-1.168-0.379-1.168-0.905c0-0.351,0.146-1.051,0.438-1.782l1.577-4.176
					c0.059-0.175,0.117-0.234,0.264-0.234h6.513c0.146,0,0.233,0.059,0.292,0.204l2.337,6.192c0.146,0.35-0.059,0.613-0.264,0.671
					c-0.291,0.029-0.408,0.088-0.408,0.263c0,0.204,0.35,0.204,0.876,0.233c2.336,0.059,4.469,0.059,5.52,0.059
					c1.081,0,1.344-0.059,1.344-0.292C186.853,27.038,186.707,27.008,186.473,27.008z M176.602,18.451h-5.374
					c-0.117,0-0.146-0.087-0.117-0.204l2.688-7.185c0.028-0.117,0.087-0.263,0.175-0.263s0.117,0.146,0.146,0.263l2.629,7.214
					C176.776,18.363,176.747,18.451,176.602,18.451z M206.945,27.008c-0.204,0-0.351,0-0.613-0.059
					c-0.409-0.087-1.314-0.204-2.745-1.636c-1.548-1.548-3.359-3.797-5.638-6.6c2.513-2.016,3.564-3.651,3.564-5.491
					c0-1.665-1.081-2.92-1.812-3.417c-1.372-0.905-3.242-1.051-4.878-1.051c-0.788,0-3.124,0.058-4.001,0.058
					c-0.525,0-2.161-0.058-3.505-0.058c-0.38,0-0.584,0.058-0.584,0.233s0.176,0.263,0.438,0.263c0.379,0,0.817,0.029,1.021,0.088
					c0.818,0.233,1.052,0.497,1.11,1.343c0.029,0.789,0.029,1.49,0.029,5.257v4.381c0,2.278,0,4.235-0.117,5.287
					c-0.087,0.73-0.233,1.197-0.76,1.314c-0.233,0.058-0.525,0.087-0.905,0.087c-0.32,0-0.409,0.146-0.409,0.263
					c0,0.175,0.176,0.263,0.497,0.263c1.022,0,2.658-0.088,3.154-0.088c0.38,0,2.512,0.088,4.002,0.088
					c0.321,0,0.525-0.088,0.525-0.263c0-0.117-0.117-0.263-0.321-0.263c-0.321,0-0.876-0.029-1.256-0.087
					c-0.789-0.117-0.905-0.584-0.993-1.314c-0.116-1.051-0.146-2.979-0.146-5.287v-0.35c0-0.146,0.087-0.205,0.204-0.205
					l2.308,0.059c0.175,0,0.321,0.029,0.467,0.175c0.321,0.379,1.402,2.044,2.425,3.388c1.431,1.927,2.395,3.096,3.505,3.651
					c0.671,0.351,1.372,0.497,2.804,0.497h2.453c0.321,0,0.496-0.059,0.496-0.263C207.267,27.154,207.149,27.008,206.945,27.008z
					 M196.605,18.129c-0.438,0.321-0.788,0.409-1.81,0.409c-0.644,0-1.402-0.058-1.957-0.233c-0.176-0.088-0.233-0.175-0.233-0.438
					v-7.39c0-0.204,0.058-0.292,0.233-0.351c0.263-0.058,0.876-0.087,1.519-0.087c1.519,0,3.913,0.905,3.913,4.41
					C198.271,16.494,197.396,17.575,196.605,18.129z M217.342,8.403c-7.799,0-10.777,5.491-10.777,9.726
					c0,4.41,3.037,9.726,10.514,9.726c6.63,0,10.777-4.469,10.777-10.164C227.855,11.996,223.825,8.403,217.342,8.403z
					 M218.13,26.512c-4.849,0-7.77-4.03-7.77-9.142c0-6.133,3.359-7.652,6.222-7.652c4.147,0,7.447,3.388,7.447,8.879
					C224.029,25.665,219.94,26.512,218.13,26.512z M250.168,8.754c-0.993,0-2.716,0.058-3.008,0.058
					c-0.029,0-1.753-0.058-3.067-0.058c-0.351,0-0.525,0.058-0.525,0.233s0.146,0.263,0.438,0.263c0.292,0,0.729,0.029,0.935,0.088
					c0.817,0.233,1.021,0.497,1.08,1.343c0.029,0.789,0.059,1.49,0.059,5.257v3.125c0,2.541-0.059,4.702-1.49,6.046
					c-1.021,0.993-2.336,1.314-3.446,1.314c-0.876,0-2.103-0.087-3.241-0.993c-1.256-0.993-1.957-2.395-1.957-6.017v-3.476
					c0-3.768,0-4.469,0.059-5.257c0.058-0.876,0.263-1.227,0.935-1.343c0.321-0.059,0.467-0.088,0.759-0.088
					c0.264,0,0.409-0.087,0.409-0.263s-0.175-0.233-0.555-0.233c-0.935,0-2.658,0.058-3.301,0.058c-0.76,0-2.482-0.058-3.854-0.058
					c-0.38,0-0.555,0.058-0.555,0.233s0.146,0.263,0.438,0.263c0.351,0,0.788,0.029,0.993,0.088
					c0.817,0.233,1.052,0.467,1.109,1.343c0.059,0.789,0.029,1.49,0.029,5.257v3.651c0,3.592,1.022,5.433,2.337,6.572
					c1.869,1.635,4.527,1.694,5.87,1.694c1.665,0,3.622-0.263,5.433-1.782c2.161-1.782,2.454-4.702,2.454-7.477v-2.658
					c0-3.768,0.028-4.469,0.058-5.257c0.059-0.876,0.234-1.227,0.935-1.343c0.321-0.059,0.468-0.088,0.759-0.088
					c0.293,0,0.438-0.087,0.438-0.263S250.519,8.754,250.168,8.754z M273.97,8.754c-1.256,0-2.22,0.058-2.512,0.058
					c-0.556,0-1.928-0.058-3.271-0.058c-0.379,0-0.643,0.029-0.643,0.233c0,0.146,0.088,0.263,0.409,0.263
					c0.351,0,0.964,0,1.344,0.146c0.613,0.234,0.847,0.672,0.876,2.19l0.263,11.041h-0.116c-0.38-0.351-3.798-3.855-5.55-5.579
					c-3.738-3.651-7.594-7.594-7.915-7.915c-0.438-0.438-0.789-0.818-1.109-0.818c-0.264,0-0.438,0.351-0.438,0.847l-0.233,14.72
					c-0.029,2.161-0.117,2.833-0.789,3.008c-0.351,0.087-0.817,0.117-1.168,0.117c-0.234,0-0.409,0.117-0.409,0.263
					c0,0.234,0.234,0.263,0.584,0.263c1.314,0,2.541-0.088,2.774-0.088c0.468,0,1.666,0.088,3.33,0.088
					c0.351,0,0.584-0.059,0.584-0.263c0-0.146-0.146-0.263-0.438-0.263c-0.409,0-0.905-0.029-1.344-0.176
					c-0.496-0.175-0.817-0.759-0.877-2.687l-0.291-10.135h0.087c0.497,0.438,3.213,3.446,6.018,6.134
					c2.687,2.599,5.898,5.666,7.506,7.155c0.262,0.263,0.613,0.526,1.051,0.526c0.205,0,0.409-0.234,0.409-0.789l0.292-15.655
					c0.029-1.401,0.233-1.839,0.935-2.044c0.321-0.088,0.525-0.088,0.788-0.088c0.292,0,0.438-0.117,0.438-0.263
					C274.554,8.783,274.32,8.754,273.97,8.754z M296.486,11.587c-2.804-2.833-7.127-2.833-10.34-2.833
					c-1.548,0-3.388,0.058-4.177,0.058c-0.729,0-2.365-0.058-3.709-0.058c-0.38,0-0.584,0.058-0.584,0.233s0.176,0.263,0.438,0.263
					c0.38,0,0.817,0.029,1.022,0.088c0.817,0.233,1.051,0.497,1.109,1.343c0.029,0.789,0.029,1.49,0.029,5.257v4.381
					c0,2.278,0,4.235-0.117,5.287c-0.087,0.73-0.233,1.197-0.759,1.314c-0.234,0.058-0.525,0.087-0.905,0.087
					c-0.322,0-0.409,0.146-0.409,0.263c0,0.175,0.175,0.263,0.496,0.263c0.526,0,1.168-0.029,1.782-0.059
					c0.613,0,1.168-0.029,1.46-0.029c0.643,0,1.577,0.059,2.6,0.146c1.021,0.059,2.132,0.146,3.066,0.146
					c4.731,0,7.448-1.752,8.616-2.92c1.46-1.431,2.804-3.797,2.804-6.922C298.91,14.946,297.771,12.873,296.486,11.587z
					 M293.04,24.759c-1.548,1.285-3.271,1.694-5.608,1.694c-2.015,0-3.037-0.526-3.358-0.994c-0.204-0.262-0.263-1.139-0.292-1.752
					c-0.029-0.497-0.059-2.395-0.059-5.023v-3.125c0-1.957,0-4.001,0.029-4.848c0-0.292,0.088-0.409,0.321-0.497
					c0.205-0.117,1.052-0.175,1.577-0.175c2.016,0,4.819,0.263,7.185,2.366c1.14,0.993,2.395,3.038,2.395,6.192
					C295.229,21.167,294.704,23.387,293.04,24.759z"/>
			</g>
		</g>
		<g id="Luxury_Homes_Rentals__x26__Concierge">
			<g>
				<path fill="#4B4B4B" d="M67.784,39.866c-0.071,0-0.094,0.059-0.106,0.153c-0.035,0.224-0.153,0.518-0.307,0.707
					c-0.282,0.342-0.801,0.354-1.425,0.354c-0.919,0-1.225-0.083-1.414-0.271c-0.211-0.212-0.259-0.966-0.259-2.698v-2.097
					c0-1.838,0-2.168,0.023-2.544c0.024-0.413,0.118-0.613,0.459-0.672c0.142-0.024,0.306-0.035,0.389-0.035
					c0.047,0,0.095-0.024,0.095-0.071c0-0.071-0.059-0.095-0.189-0.095c-0.354,0-1.213,0.036-1.272,0.036
					c-0.059,0-0.801-0.036-1.331-0.036c-0.13,0-0.188,0.024-0.188,0.095c0,0.046,0.047,0.071,0.094,0.071
					c0.106,0,0.307,0.011,0.401,0.035c0.389,0.082,0.483,0.271,0.507,0.672c0.023,0.376,0.023,0.707,0.023,2.544v2.073
					c0,1.131,0,2.062-0.059,2.557c-0.047,0.342-0.106,0.601-0.342,0.648c-0.105,0.024-0.247,0.047-0.353,0.047
					c-0.071,0-0.094,0.035-0.094,0.071c0,0.071,0.059,0.094,0.188,0.094c0.176,0,0.436-0.012,0.671-0.023
					c0.235,0,0.436-0.012,0.483-0.012c0.342,0,0.707,0.012,1.202,0.036c0.495,0.012,1.107,0.035,1.956,0.035
					c0.625,0,0.66-0.047,0.742-0.318c0.094-0.342,0.176-1.049,0.176-1.178C67.854,39.913,67.843,39.866,67.784,39.866z
					 M76.204,33.928c-0.306,0-0.801,0.023-0.872,0.023c-0.059,0-0.66-0.023-1.12-0.023c-0.118,0-0.165,0.023-0.165,0.083
					c0,0.036,0.035,0.083,0.082,0.083c0.094,0,0.271,0.012,0.354,0.023c0.341,0.047,0.4,0.236,0.412,0.554
					c0.012,0.318,0.024,0.601,0.024,2.156v1.26c0,1.025-0.106,1.85-0.589,2.427c-0.354,0.424-0.966,0.707-1.603,0.707
					c-0.589,0-1.037-0.083-1.543-0.542c-0.448-0.4-0.766-1.001-0.766-2.451v-1.401c0-1.556,0-1.838,0.023-2.156
					c0.024-0.331,0.083-0.507,0.354-0.554c0.129-0.023,0.188-0.023,0.259-0.023c0.047,0,0.094-0.047,0.094-0.083
					c0-0.059-0.059-0.083-0.177-0.083c-0.306,0-0.954,0.023-1.049,0.023c-0.094,0-0.718-0.023-1.19-0.023
					c-0.118,0-0.165,0.023-0.165,0.083c0,0.036,0.047,0.083,0.083,0.083c0.094,0,0.271,0.012,0.354,0.023
					c0.342,0.047,0.4,0.236,0.424,0.554c0.023,0.318,0.023,0.601,0.023,2.156v1.472c0,1.461,0.4,2.156,0.907,2.627
					c0.73,0.683,1.815,0.707,2.156,0.707c0.612,0,1.414-0.083,2.168-0.73c0.825-0.708,0.966-1.921,0.966-3.005v-1.071
					c0-1.556-0.012-1.838,0.012-2.156c0.024-0.331,0.083-0.495,0.365-0.554c0.13-0.023,0.188-0.023,0.259-0.023
					c0.047,0,0.083-0.047,0.083-0.083C76.369,33.952,76.322,33.928,76.204,33.928z M83.551,41.28
					c-0.306-0.083-0.424-0.224-0.589-0.436c-0.224-0.271-1.991-3.182-2.192-3.487l1.662-2.427c0.294-0.436,0.483-0.695,0.777-0.79
					c0.118-0.035,0.271-0.047,0.354-0.047c0.071,0,0.106-0.059,0.106-0.094c0-0.047-0.047-0.071-0.165-0.071
					c-0.354,0-0.778,0.023-0.872,0.023s-0.53-0.023-0.919-0.023c-0.13,0-0.177,0.023-0.177,0.071s0.035,0.094,0.094,0.094
					c0.059,0,0.177,0,0.283,0.023c0.106,0.036,0.177,0.094,0.177,0.165c0,0.118-0.023,0.212-0.106,0.354
					c-0.094,0.212-1.19,1.897-1.497,2.333c-0.542-0.86-0.93-1.579-1.366-2.369c-0.059-0.106-0.106-0.236-0.106-0.33
					c0-0.071,0.035-0.142,0.13-0.153c0.083-0.023,0.212-0.023,0.283-0.023c0.059,0,0.094-0.047,0.094-0.094
					s-0.036-0.071-0.177-0.071c-0.353,0-0.919,0.023-1.013,0.023c-0.083,0-0.919-0.023-1.214-0.023
					c-0.129,0-0.176,0.023-0.176,0.071c0,0.036,0.035,0.094,0.094,0.094s0.271,0.023,0.436,0.071
					c0.354,0.106,0.554,0.389,0.79,0.777l1.649,2.687l-1.861,2.875c-0.33,0.506-0.542,0.695-0.849,0.778
					c-0.153,0.035-0.306,0.059-0.388,0.059c-0.059,0-0.083,0.047-0.083,0.095c0,0.035,0.012,0.07,0.094,0.07
					c0.342,0,0.86-0.036,0.943-0.036c0.094,0,0.777,0.036,1.025,0.036c0.07,0,0.129-0.023,0.129-0.07
					c0-0.047-0.035-0.095-0.094-0.095c-0.047,0-0.129-0.012-0.188-0.023c-0.095-0.024-0.165-0.071-0.165-0.166
					c0-0.105,0.035-0.282,0.129-0.447l1.59-2.627c0.625,1.014,1.19,1.979,1.755,2.958c0.095,0.165,0,0.271-0.059,0.283
					c-0.036,0.012-0.059,0.047-0.059,0.083c0,0.047,0.047,0.07,0.318,0.083c0.565,0.023,1.06,0.023,1.696,0.023
					c0.095,0,0.142-0.036,0.142-0.082c0-0.048-0.023-0.083-0.083-0.083S83.692,41.315,83.551,41.28z M92.019,33.928
					c-0.307,0-0.802,0.023-0.872,0.023c-0.059,0-0.66-0.023-1.12-0.023c-0.118,0-0.165,0.023-0.165,0.083
					c0,0.036,0.035,0.083,0.083,0.083c0.094,0,0.271,0.012,0.354,0.023c0.341,0.047,0.4,0.236,0.412,0.554
					c0.012,0.318,0.023,0.601,0.023,2.156v1.26c0,1.025-0.106,1.85-0.589,2.427c-0.354,0.424-0.966,0.707-1.602,0.707
					c-0.589,0-1.037-0.083-1.543-0.542c-0.448-0.4-0.766-1.001-0.766-2.451v-1.401c0-1.556,0-1.838,0.024-2.156
					c0.023-0.331,0.082-0.507,0.353-0.554c0.13-0.023,0.189-0.023,0.259-0.023c0.047,0,0.094-0.047,0.094-0.083
					c0-0.059-0.059-0.083-0.177-0.083c-0.306,0-0.954,0.023-1.048,0.023s-0.719-0.023-1.19-0.023c-0.118,0-0.166,0.023-0.166,0.083
					c0,0.036,0.048,0.083,0.083,0.083c0.095,0,0.271,0.012,0.354,0.023c0.341,0.047,0.4,0.236,0.424,0.554
					c0.023,0.318,0.023,0.601,0.023,2.156v1.472c0,1.461,0.401,2.156,0.908,2.627c0.73,0.683,1.814,0.707,2.156,0.707
					c0.612,0,1.413-0.083,2.167-0.73c0.825-0.708,0.966-1.921,0.966-3.005v-1.071c0-1.556-0.012-1.838,0.012-2.156
					c0.023-0.331,0.082-0.495,0.365-0.554c0.129-0.023,0.188-0.023,0.259-0.023c0.047,0,0.082-0.047,0.082-0.083
					C92.183,33.952,92.136,33.928,92.019,33.928z M101.286,41.339c-0.059,0-0.165,0-0.365-0.036
					c-0.259-0.035-0.601-0.129-1.155-0.695c-0.601-0.625-1.319-1.531-2.167-2.592c0.966-0.824,1.272-1.543,1.272-2.286
					c0-0.695-0.459-1.178-0.718-1.367c-0.542-0.376-1.272-0.436-1.932-0.436c-0.318,0-1.19,0.023-1.296,0.023
					c-0.059,0-0.754-0.023-1.225-0.023c-0.118,0-0.165,0.023-0.165,0.083c0,0.036,0.047,0.083,0.083,0.083
					c0.094,0,0.271,0.012,0.354,0.023c0.342,0.047,0.4,0.212,0.424,0.554c0.023,0.318,0.023,0.601,0.023,2.156v1.767
					c0,0.966,0,1.755-0.059,2.168c-0.047,0.294-0.071,0.483-0.271,0.53c-0.094,0.024-0.224,0.047-0.318,0.047
					c-0.059,0-0.083,0.047-0.083,0.083c0,0.059,0.059,0.082,0.165,0.082c0.318,0,1.013-0.036,1.025-0.036
					c0.047,0,0.707,0.036,1.272,0.036c0.118,0,0.165-0.036,0.165-0.082c0-0.036-0.011-0.083-0.083-0.083
					c-0.094,0-0.318-0.023-0.459-0.047c-0.318-0.047-0.377-0.235-0.413-0.53c-0.047-0.413-0.047-1.19-0.047-2.156V38.37
					c0-0.059,0.023-0.083,0.07-0.083l1.32,0.023c0.07,0,0.095,0.012,0.142,0.059c0.224,0.271,0.683,0.918,1.119,1.461
					c0.589,0.754,0.966,1.237,1.414,1.472c0.259,0.142,0.518,0.201,1.107,0.201h0.648c0.188,0,0.248-0.023,0.248-0.082
					C101.38,41.386,101.345,41.339,101.286,41.339z M97.304,37.781c-0.248,0.165-0.531,0.176-0.778,0.176
					c-0.459,0-0.989-0.071-1.143-0.153c-0.047-0.036-0.07-0.071-0.07-0.13v-3.216c0-0.059,0.035-0.095,0.083-0.118
					c0.106-0.023,0.436-0.059,0.742-0.059c1.107,0,1.791,0.719,1.791,1.967C97.928,37.015,97.657,37.545,97.304,37.781z
					 M107.596,33.928c-0.2,0-0.942,0.023-1.013,0.023c-0.083,0-0.448-0.023-0.719-0.023c-0.106,0-0.165,0.023-0.165,0.059
					c0,0.047,0.059,0.094,0.153,0.118c0.118,0.035,0.165,0.118,0.165,0.259c0,0.13-0.047,0.295-0.177,0.519
					c-0.188,0.33-1.484,2.475-1.697,2.899l-1.885-3.123c-0.071-0.129-0.142-0.248-0.142-0.389c0-0.082,0.047-0.13,0.129-0.165
					c0.095-0.035,0.165-0.07,0.165-0.106c0-0.047-0.023-0.071-0.141-0.071c-0.401,0-0.825,0.023-0.896,0.023
					c-0.047,0-0.824-0.023-1.025-0.023c-0.094,0-0.129,0.023-0.129,0.071s0.048,0.094,0.106,0.094c0.082,0,0.283,0.047,0.436,0.141
					c0.188,0.129,0.436,0.354,0.683,0.731c0.353,0.53,1.755,2.756,1.838,2.91c0.153,0.283,0.224,0.483,0.224,1.025v0.86
					c0,0.165,0,0.589-0.023,1.001c-0.023,0.294-0.094,0.483-0.306,0.53c-0.094,0.024-0.212,0.047-0.306,0.047
					c-0.059,0-0.083,0.047-0.083,0.083c0,0.059,0.047,0.082,0.165,0.082c0.307,0,0.966-0.036,1.014-0.036
					c0.059,0,0.73,0.036,1.307,0.036c0.107,0,0.166-0.036,0.166-0.082c0-0.036-0.023-0.083-0.083-0.083
					c-0.094,0-0.33-0.023-0.471-0.047c-0.307-0.047-0.377-0.235-0.401-0.53c-0.035-0.413-0.035-0.836-0.035-1.001V38.9
					c0-0.33-0.047-0.648,0.129-1.001c0.212-0.424,1.673-2.78,2.015-3.181c0.224-0.271,0.318-0.377,0.519-0.494
					c0.165-0.095,0.365-0.13,0.483-0.13c0.083,0,0.129-0.059,0.129-0.106C107.726,33.952,107.667,33.928,107.596,33.928z
					 M121.375,41.339c-0.105,0-0.365-0.023-0.53-0.047c-0.354-0.047-0.424-0.306-0.459-0.648c-0.059-0.495-0.059-1.425-0.059-2.557
					v-2.073c0-1.838,0-2.168,0.023-2.544c0.024-0.413,0.118-0.613,0.436-0.672c0.142-0.024,0.212-0.035,0.294-0.035
					c0.047,0,0.094-0.024,0.094-0.071c0-0.071-0.059-0.095-0.188-0.095c-0.354,0-1.096,0.036-1.155,0.036s-0.801-0.036-1.331-0.036
					c-0.13,0-0.189,0.024-0.189,0.095c0,0.046,0.047,0.071,0.094,0.071c0.106,0,0.307,0.011,0.4,0.035
					c0.389,0.082,0.483,0.271,0.507,0.672c0.023,0.376,0.023,0.707,0.023,2.544v0.247c0,0.059-0.035,0.071-0.07,0.071h-4.996
					c-0.035,0-0.071-0.012-0.071-0.071v-0.247c0-1.838,0-2.168,0.023-2.544c0.024-0.413,0.118-0.613,0.436-0.672
					c0.142-0.024,0.212-0.035,0.295-0.035c0.047,0,0.094-0.024,0.094-0.071c0-0.071-0.059-0.095-0.188-0.095
					c-0.354,0-1.096,0.036-1.154,0.036c-0.059,0-0.801-0.036-1.332-0.036c-0.129,0-0.188,0.024-0.188,0.095
					c0,0.046,0.047,0.071,0.094,0.071c0.106,0,0.306,0.011,0.401,0.035c0.389,0.082,0.483,0.271,0.506,0.672
					c0.024,0.376,0.024,0.707,0.024,2.544v2.073c0,1.131,0,2.062-0.059,2.557c-0.047,0.342-0.106,0.601-0.342,0.648
					c-0.106,0.024-0.248,0.047-0.354,0.047c-0.071,0-0.094,0.035-0.094,0.071c0,0.071,0.059,0.094,0.189,0.094
					c0.353,0,1.095-0.036,1.154-0.036c0.059,0,0.801,0.036,1.449,0.036c0.129,0,0.188-0.036,0.188-0.094
					c0-0.036-0.023-0.071-0.095-0.071c-0.105,0-0.365-0.023-0.53-0.047c-0.354-0.047-0.424-0.306-0.459-0.648
					c-0.059-0.495-0.059-1.425-0.059-2.557V36.85c0-0.059,0.036-0.071,0.071-0.071h4.996c0.035,0,0.07,0.024,0.07,0.071v1.237
					c0,1.131,0,2.062-0.059,2.557c-0.047,0.342-0.106,0.601-0.342,0.648c-0.106,0.024-0.248,0.047-0.353,0.047
					c-0.071,0-0.095,0.035-0.095,0.071c0,0.071,0.059,0.094,0.188,0.094c0.354,0,1.096-0.036,1.155-0.036s0.801,0.036,1.449,0.036
					c0.129,0,0.188-0.036,0.188-0.094C121.469,41.374,121.445,41.339,121.375,41.339z M127.177,33.787
					c-2.863,0-4.111,2.298-4.111,3.912c0,1.803,1.213,3.936,4.053,3.936c2.498,0,4.159-1.85,4.159-4.088
					C131.277,35.212,129.51,33.787,127.177,33.787z M127.413,41.221c-1.873,0-3.275-1.461-3.275-3.794
					c0-2.18,1.249-3.263,2.981-3.263c1.638,0,3.099,1.261,3.099,3.664C130.217,40.726,128.344,41.221,127.413,41.221z
					 M142.052,41.245c-0.424-0.141-0.495-0.684-0.529-1.037l-0.708-6.15c-0.023-0.188-0.083-0.271-0.153-0.271
					c-0.071,0-0.118,0.071-0.166,0.165l-3.016,6.209l-3.134-6.221c-0.06-0.118-0.142-0.153-0.213-0.153
					c-0.058,0-0.105,0.071-0.117,0.177l-0.754,6.539c-0.046,0.377-0.059,0.742-0.4,0.801c-0.154,0.024-0.225,0.036-0.307,0.036
					c-0.059,0-0.106,0.035-0.106,0.071c0,0.071,0.071,0.094,0.177,0.094c0.282,0,0.777-0.036,0.872-0.036
					c0.083,0,0.578,0.036,0.966,0.036c0.118,0,0.189-0.023,0.189-0.094c0-0.036-0.047-0.071-0.083-0.071
					c-0.07,0-0.223-0.012-0.4-0.059c-0.153-0.036-0.248-0.13-0.248-0.283c0-0.165,0-0.354,0.012-0.506l0.401-4.524h0.047
					c0.177,0.413,1.013,2.098,1.319,2.733c0.26,0.542,0.942,1.826,1.213,2.321c0.201,0.366,0.259,0.46,0.354,0.46
					s0.153-0.094,0.365-0.531l2.498-5.113h0.023l0.495,5.066c0.023,0.188,0.012,0.341-0.047,0.354
					c-0.046,0.011-0.07,0.046-0.07,0.082c0,0.047,0.047,0.083,0.294,0.106c0.377,0.036,1.532,0.059,1.767,0.059
					c0.118,0,0.212-0.036,0.212-0.094c0-0.047-0.035-0.071-0.082-0.071C142.618,41.339,142.347,41.339,142.052,41.245z
					 M148.433,40.149c-0.06,0-0.084,0.036-0.106,0.153c-0.06,0.401-0.201,0.578-0.473,0.695c-0.271,0.106-0.765,0.106-1.036,0.106
					c-1.024,0-1.213-0.13-1.237-0.802c-0.011-0.2,0-1.366,0-1.708v-0.836c0-0.036,0.013-0.071,0.071-0.071
					c0.177,0,1.284,0.012,1.566,0.047c0.4,0.047,0.495,0.165,0.53,0.306c0.048,0.13,0.048,0.236,0.048,0.33
					c0,0.059,0.023,0.094,0.07,0.094c0.07,0,0.095-0.105,0.095-0.188c0-0.071,0.023-0.448,0.047-0.648
					c0.023-0.33,0.082-0.495,0.082-0.554c0-0.059-0.023-0.082-0.059-0.082s-0.083,0.059-0.153,0.13
					c-0.106,0.105-0.26,0.117-0.507,0.141c-0.235,0.023-1.603,0.023-1.731,0.023c-0.06,0-0.06-0.035-0.06-0.106v-2.721
					c0-0.07,0.013-0.106,0.06-0.106c0.117,0,1.319,0.011,1.496,0.036c0.565,0.07,0.672,0.141,0.742,0.306
					c0.047,0.118,0.059,0.283,0.059,0.354c0,0.083,0.024,0.129,0.083,0.129c0.047,0,0.082-0.059,0.095-0.106
					c0.022-0.118,0.047-0.565,0.058-0.66c0.024-0.283,0.083-0.4,0.083-0.471c0-0.047-0.012-0.094-0.047-0.094
					c-0.047,0-0.094,0.035-0.142,0.047c-0.082,0.012-0.271,0.047-0.472,0.059c-0.235,0.012-2.402,0-2.474,0
					c-0.06,0-0.73-0.023-1.202-0.023c-0.117,0-0.164,0.023-0.164,0.083c0,0.036,0.047,0.083,0.082,0.083
					c0.095,0,0.271,0.012,0.354,0.023c0.342,0.047,0.4,0.212,0.424,0.554c0.023,0.318,0.023,0.601,0.023,2.156v1.767
					c0,0.966,0,1.755-0.059,2.168c-0.047,0.294-0.07,0.495-0.271,0.53c-0.095,0.012-0.225,0.047-0.318,0.047
					c-0.059,0-0.083,0.047-0.083,0.083c0,0.059,0.059,0.082,0.166,0.082c0.164,0,0.399-0.012,0.601-0.023
					c0.224-0.012,0.424-0.012,0.447-0.012c0.153,0,0.424,0,0.86,0.024c0.424,0.012,1.024,0.035,1.802,0.035
					c0.4,0,0.507,0,0.578-0.259c0.059-0.212,0.141-0.896,0.141-0.966C148.502,40.231,148.49,40.149,148.433,40.149z M152.682,37.157
					l-0.295-0.2c-1.024-0.696-1.343-1.061-1.343-1.697c0-0.707,0.624-1.084,1.379-1.084c0.93,0,1.271,0.377,1.343,0.495
					c0.058,0.106,0.141,0.377,0.153,0.495c0.011,0.082,0.022,0.13,0.094,0.13c0.07,0,0.082-0.071,0.082-0.224
					c0-0.683,0.047-1.014,0.047-1.061c0-0.059-0.023-0.071-0.105-0.071s-0.165,0-0.365-0.047c-0.248-0.059-0.66-0.118-1.072-0.118
					c-1.366,0-2.297,0.708-2.297,1.885c0,0.695,0.365,1.308,1.484,2.145l0.471,0.354c0.919,0.683,1.308,1.024,1.308,1.744
					c0,0.754-0.529,1.331-1.555,1.331c-0.695,0-1.474-0.259-1.638-0.99c-0.035-0.141-0.035-0.283-0.035-0.365
					c0-0.082-0.035-0.118-0.094-0.118c-0.06,0-0.083,0.059-0.083,0.165c-0.012,0.165-0.06,0.565-0.06,1.06
					c0,0.271,0.012,0.306,0.153,0.377c0.425,0.2,1.025,0.271,1.509,0.271c0.565,0,1.213-0.071,1.648-0.354
					c0.743-0.483,0.967-1.12,0.967-1.708C154.378,38.711,153.941,38.016,152.682,37.157z M173.795,40.149
					c-0.059,0-0.082,0.036-0.105,0.153c-0.059,0.401-0.2,0.578-0.472,0.695c-0.271,0.106-0.766,0.106-1.036,0.106
					c-1.025,0-1.214-0.13-1.237-0.802c-0.012-0.2,0-1.366,0-1.708v-0.836c0-0.036,0.012-0.071,0.071-0.071
					c0.176,0,1.283,0.012,1.565,0.047c0.401,0.047,0.495,0.165,0.531,0.306c0.047,0.13,0.047,0.236,0.047,0.33
					c0,0.059,0.023,0.094,0.07,0.094c0.071,0,0.094-0.105,0.094-0.188c0-0.071,0.024-0.448,0.048-0.648
					c0.023-0.33,0.083-0.495,0.083-0.554c0-0.059-0.023-0.082-0.06-0.082c-0.035,0-0.082,0.059-0.153,0.13
					c-0.105,0.105-0.259,0.117-0.506,0.141c-0.236,0.023-1.603,0.023-1.732,0.023c-0.059,0-0.059-0.035-0.059-0.106v-2.721
					c0-0.07,0.012-0.106,0.059-0.106c0.118,0,1.319,0.011,1.496,0.036c0.565,0.07,0.672,0.141,0.742,0.306
					c0.047,0.118,0.06,0.283,0.06,0.354c0,0.083,0.022,0.129,0.082,0.129c0.048,0,0.083-0.059,0.094-0.106
					c0.024-0.118,0.048-0.565,0.06-0.66c0.023-0.283,0.082-0.4,0.082-0.471c0-0.047-0.012-0.094-0.047-0.094
					c-0.047,0-0.095,0.035-0.141,0.047c-0.083,0.012-0.271,0.047-0.472,0.059c-0.235,0.012-2.404,0-2.475,0
					c-0.059,0-0.729-0.023-1.201-0.023c-0.118,0-0.165,0.023-0.165,0.083c0,0.036,0.047,0.083,0.082,0.083
					c0.095,0,0.271,0.012,0.354,0.023c0.342,0.047,0.4,0.212,0.425,0.554c0.023,0.318,0.023,0.601,0.023,2.156v1.767
					c0,0.966,0,1.755-0.06,2.168c-0.047,0.294-0.071,0.495-0.271,0.53c-0.095,0.012-0.224,0.047-0.318,0.047
					c-0.052,0-0.072,0.036-0.078,0.069c-0.001-0.035-0.048-0.069-0.105-0.069c-0.07,0-0.235,0-0.46-0.036
					c-0.294-0.046-0.801-0.176-1.438-0.848c-0.683-0.73-1.484-1.779-2.45-3.016c1.061-0.978,1.426-1.85,1.426-2.722
					c0-0.812-0.519-1.39-0.813-1.602c-0.624-0.448-1.413-0.519-2.156-0.519c-0.363,0-1.26,0.036-1.39,0.036
					c-0.059,0-0.801-0.036-1.331-0.036c-0.13,0-0.188,0.024-0.188,0.095c0,0.046,0.047,0.071,0.095,0.071
					c0.105,0,0.306,0.011,0.399,0.035c0.39,0.082,0.483,0.271,0.507,0.672c0.023,0.376,0.023,0.707,0.023,2.544v2.073
					c0,1.131,0,2.062-0.059,2.557c-0.047,0.342-0.106,0.601-0.341,0.648c-0.106,0.024-0.248,0.047-0.354,0.047
					c-0.071,0-0.095,0.035-0.095,0.071c0,0.071,0.059,0.094,0.188,0.094c0.354,0,1.096-0.036,1.107-0.036
					c0.059,0,0.802,0.036,1.449,0.036c0.13,0,0.188-0.036,0.188-0.094c0-0.036-0.023-0.071-0.095-0.071
					c-0.106,0-0.365-0.023-0.529-0.047c-0.354-0.047-0.425-0.306-0.46-0.648c-0.06-0.495-0.06-1.425-0.06-2.557v-0.282
					c0-0.059,0.024-0.094,0.083-0.094l1.449,0.023c0.07,0,0.106,0.023,0.153,0.071c0.235,0.306,0.789,1.095,1.284,1.743
					c0.672,0.884,1.084,1.461,1.591,1.732c0.306,0.165,0.601,0.224,1.26,0.224h0.837c0.207,0,0.277-0.024,0.28-0.091
					c0,0.003-0.003,0.006-0.003,0.009c0,0.059,0.06,0.082,0.166,0.082c0.165,0,0.4-0.012,0.601-0.023
					c0.224-0.012,0.424-0.012,0.447-0.012c0.153,0,0.424,0,0.86,0.024c0.424,0.012,1.025,0.035,1.803,0.035
					c0.4,0,0.507,0,0.577-0.259c0.06-0.212,0.142-0.896,0.142-0.966C173.866,40.231,173.854,40.149,173.795,40.149z M163.656,37.369
					c-0.519,0-1.062-0.083-1.237-0.189c-0.059-0.035-0.083-0.082-0.083-0.141v-3.853c0-0.071,0.036-0.118,0.095-0.141
					c0.118-0.036,0.437-0.071,0.789-0.071c1.261,0,2.039,0.883,2.039,2.356c0,0.896-0.307,1.531-0.719,1.814
					C164.269,37.333,163.938,37.369,163.656,37.369z M183.629,33.928c-0.424,0-0.766,0.023-0.883,0.023
					c-0.118,0-0.613-0.023-1.084-0.023c-0.118,0-0.2,0.012-0.2,0.071c0,0.036,0.011,0.094,0.082,0.094
					c0.082,0,0.318,0.012,0.507,0.047c0.318,0.059,0.377,0.283,0.389,0.931l0.106,5.019c-0.318-0.33-1.426-1.52-2.451-2.58
					c-1.603-1.65-3.11-3.252-3.275-3.417c-0.105-0.106-0.282-0.307-0.4-0.307c-0.082,0-0.142,0.106-0.142,0.507v5.738
					c0,0.907-0.035,1.178-0.294,1.249c-0.153,0.047-0.342,0.059-0.424,0.059c-0.048,0-0.083,0.035-0.083,0.083
					c0,0.07,0.059,0.082,0.165,0.082c0.472,0,0.906-0.036,1.001-0.036s0.507,0.036,1.096,0.036c0.118,0,0.188-0.023,0.188-0.082
					c0-0.048-0.035-0.083-0.082-0.083c-0.094,0-0.33-0.012-0.519-0.059c-0.282-0.071-0.377-0.318-0.4-1.143l-0.118-4.725
					c0.318,0.354,1.484,1.579,2.687,2.839c1.096,1.143,2.592,2.616,2.698,2.71c0.577,0.53,0.684,0.613,0.789,0.613
					c0.07,0,0.082-0.059,0.082-0.719l0.024-5.867c0-0.601,0.022-0.801,0.365-0.872c0.117-0.023,0.2-0.023,0.247-0.023
					c0.07,0,0.118-0.059,0.118-0.094C183.818,33.94,183.735,33.928,183.629,33.928z M191.282,33.857
					c-0.048,0-0.142,0.023-0.295,0.047c-0.165,0.023-0.4,0.047-0.742,0.047h-3.911c-0.118,0-0.519-0.012-0.812-0.047
					c-0.283-0.035-0.39-0.118-0.46-0.118c-0.036,0-0.083,0.13-0.106,0.189c-0.012,0.082-0.224,0.978-0.224,1.083
					c0,0.059,0.047,0.083,0.07,0.083c0.048,0,0.083-0.012,0.106-0.094c0.035-0.071,0.047-0.142,0.165-0.318
					c0.153-0.236,0.4-0.306,1.049-0.318l1.496-0.023v4.206c0,0.966,0,1.755-0.047,2.168c-0.036,0.294-0.095,0.495-0.307,0.542
					c-0.094,0.024-0.212,0.047-0.307,0.047c-0.059,0-0.082,0.036-0.082,0.071c0,0.059,0.047,0.082,0.165,0.082
					c0.306,0,1.024-0.036,1.071-0.036c0.06,0,0.719,0.036,1.284,0.036c0.118,0,0.165-0.036,0.165-0.082
					c0-0.036-0.012-0.083-0.082-0.083c-0.094,0-0.33-0.023-0.471-0.047c-0.318-0.047-0.365-0.235-0.401-0.53
					c-0.047-0.413-0.047-1.202-0.047-2.168v-4.206l1.296,0.023c0.99,0.023,1.214,0.248,1.249,0.554l0.012,0.106
					c0.012,0.141,0.035,0.176,0.082,0.176c0.048,0,0.095-0.047,0.095-0.129c0-0.118,0.035-0.836,0.035-1.143
					C191.329,33.917,191.329,33.857,191.282,33.857z M199.337,41.339c-0.106,0-0.26-0.012-0.412-0.059
					c-0.225-0.071-0.507-0.201-0.885-1.096c-0.637-1.52-2.297-5.655-2.485-6.08c-0.105-0.224-0.142-0.365-0.248-0.365
					c-0.069,0-0.117,0.059-0.247,0.389l-2.438,6.268c-0.2,0.507-0.401,0.86-0.872,0.919c-0.083,0.012-0.235,0.023-0.306,0.023
					c-0.048,0-0.095,0.035-0.095,0.083c0,0.059,0.07,0.082,0.2,0.082c0.425,0,0.942-0.036,1.049-0.036
					c0.118,0,0.684,0.036,0.931,0.036c0.095,0,0.153-0.023,0.153-0.082c0-0.048-0.023-0.083-0.106-0.083h-0.094
					c-0.177,0-0.354-0.071-0.354-0.271c0-0.177,0.059-0.424,0.153-0.671l0.589-1.602c0.023-0.06,0.059-0.083,0.106-0.083h2.392
					c0.059,0,0.07,0.012,0.094,0.059l0.931,2.297c0.07,0.165-0.035,0.248-0.094,0.271c-0.048,0.024-0.071,0.024-0.071,0.071
					c0,0.059,0.165,0.059,0.365,0.071c0.719,0.023,1.484,0.023,1.638,0.023c0.118,0,0.235-0.023,0.235-0.082
					C199.466,41.363,199.396,41.339,199.337,41.339z M196.215,38.299h-2.098c-0.035,0-0.047-0.023-0.035-0.071l0.966-2.745
					c0.06-0.153,0.118-0.153,0.177,0l1.025,2.745C196.262,38.276,196.262,38.299,196.215,38.299z M204.965,40.102
					c-0.06,0-0.095,0.059-0.106,0.129c-0.036,0.2-0.118,0.412-0.247,0.566c-0.248,0.294-0.707,0.306-1.249,0.306
					c-0.813,0-1.214-0.071-1.379-0.236c-0.188-0.177-0.212-0.777-0.212-2.25v-1.791c0-1.556,0-1.838,0.012-2.156
					c0.023-0.354,0.082-0.507,0.389-0.566c0.118-0.012,0.271-0.024,0.342-0.024c0.035,0,0.083-0.035,0.083-0.07
					c0-0.059-0.06-0.083-0.166-0.083c-0.317,0-1.095,0.023-1.143,0.023c-0.059,0-0.707-0.023-1.178-0.023
					c-0.118,0-0.165,0.023-0.165,0.083c0,0.036,0.047,0.083,0.082,0.083c0.095,0,0.271,0.012,0.354,0.023
					c0.342,0.047,0.4,0.212,0.425,0.554c0.022,0.318,0.022,0.601,0.022,2.156v1.767c0,0.966,0,1.755-0.059,2.168
					c-0.047,0.294-0.07,0.483-0.271,0.53c-0.095,0.024-0.224,0.047-0.318,0.047c-0.059,0-0.082,0.047-0.082,0.083
					c0,0.059,0.059,0.082,0.164,0.082c0.165,0,0.39-0.012,0.602-0.023c0.2-0.012,0.377-0.012,0.424-0.012
					c0.307,0,0.66,0.012,1.131,0.024c0.483,0.023,1.061,0.035,1.803,0.035c0.554,0,0.59-0.035,0.66-0.271
					c0.083-0.295,0.152-0.896,0.152-1.001C205.034,40.149,205.012,40.102,204.965,40.102z M208.684,37.157l-0.294-0.2
					c-1.025-0.696-1.344-1.061-1.344-1.697c0-0.707,0.624-1.084,1.379-1.084c0.931,0,1.272,0.377,1.343,0.495
					c0.059,0.106,0.142,0.377,0.153,0.495c0.012,0.082,0.023,0.13,0.094,0.13s0.083-0.071,0.083-0.224
					c0-0.683,0.046-1.014,0.046-1.061c0-0.059-0.022-0.071-0.104-0.071c-0.083,0-0.165,0-0.365-0.047
					c-0.248-0.059-0.66-0.118-1.072-0.118c-1.367,0-2.298,0.708-2.298,1.885c0,0.695,0.365,1.308,1.484,2.145l0.471,0.354
					c0.919,0.683,1.309,1.024,1.309,1.744c0,0.754-0.53,1.331-1.556,1.331c-0.694,0-1.473-0.259-1.638-0.99
					c-0.035-0.141-0.035-0.283-0.035-0.365c0-0.082-0.035-0.118-0.094-0.118c-0.06,0-0.083,0.059-0.083,0.165
					c-0.012,0.165-0.058,0.565-0.058,1.06c0,0.271,0.011,0.306,0.152,0.377c0.424,0.2,1.025,0.271,1.508,0.271
					c0.565,0,1.213-0.071,1.649-0.354c0.742-0.483,0.966-1.12,0.966-1.708C210.38,38.711,209.944,38.016,208.684,37.157z
					 M225.338,41.339c-0.425,0-1.025-0.235-1.402-0.459c-0.33-0.188-0.849-0.507-1.626-1.167c0.519-0.636,1.166-1.826,1.166-2.78
					c0-0.118-0.035-0.212-0.212-0.236c-0.659-0.071-1.131-0.082-1.414-0.082c-0.095,0-0.188,0.023-0.188,0.082
					c0,0.059,0.07,0.083,0.141,0.083c0.177,0,0.424,0.036,0.577,0.189c0.177,0.176,0.225,0.4,0.225,0.577
					c0,0.719-0.271,1.508-0.602,1.956c-0.377-0.318-1.826-1.673-2.227-2.109c-1.226-1.332-1.861-2.097-1.861-3.016
					c0-1.107,0.789-1.543,1.496-1.543c0.519,0,0.919,0.248,1.178,0.519c0.295,0.306,0.365,0.695,0.365,1.001
					c0,0.177,0.013,0.224,0.071,0.224c0.047,0,0.082-0.023,0.117-0.2c0.036-0.177,0.083-1.001,0.083-1.354
					c0-0.142-0.012-0.212-0.153-0.295c-0.318-0.177-0.824-0.294-1.426-0.294c-1.578,0-2.533,1.237-2.533,2.167
					c0,0.531,0.142,1.014,0.577,1.626c-0.918,0.542-1.803,1.46-1.803,2.839c0,1.025,0.802,2.604,2.863,2.604
					c1.744,0,2.675-1.001,2.945-1.272c1.296,1.025,1.579,1.107,2.451,1.107h1.154c0.105,0,0.2-0.036,0.2-0.082
					C225.502,41.351,225.443,41.339,225.338,41.339z M219.163,41.044c-1.318,0-2.355-1.061-2.355-2.533
					c0-0.943,0.447-1.579,1.061-1.979c0.33,0.483,1.083,1.319,1.39,1.649c0.306,0.331,1.473,1.45,2.133,1.991
					C220.989,40.585,220.26,41.044,219.163,41.044z M236.923,39.372c-0.07,0-0.095,0.047-0.117,0.176
					c-0.036,0.212-0.188,0.731-0.436,0.99c-0.472,0.483-1.167,0.589-2.051,0.589c-2.521,0-4.253-2.062-4.253-4.312
					c0-1.202,0.2-2.251,1.061-3.075c0.412-0.4,1.143-0.86,2.709-0.86c1.037,0,1.944,0.318,2.356,0.672
					c0.307,0.259,0.495,0.742,0.495,1.202c0,0.165,0.012,0.248,0.095,0.248c0.07,0,0.094-0.071,0.105-0.248s0.012-0.825,0.035-1.214
					c0.024-0.424,0.06-0.565,0.06-0.66c0-0.07-0.023-0.117-0.154-0.129c-0.376-0.023-0.753-0.094-1.201-0.177
					c-0.577-0.106-1.237-0.141-1.708-0.141c-1.814,0-2.887,0.554-3.594,1.261c-1.048,1.048-1.319,2.427-1.319,3.216
					c0,1.12,0.283,2.462,1.426,3.487c0.931,0.836,2.121,1.272,3.888,1.272c0.754,0,1.649-0.082,2.121-0.271
					c0.212-0.095,0.235-0.118,0.306-0.342c0.118-0.4,0.26-1.425,0.26-1.508C237.006,39.454,236.982,39.372,236.923,39.372z
					 M242.491,33.787c-2.863,0-4.112,2.298-4.112,3.912c0,1.803,1.214,3.936,4.053,3.936c2.498,0,4.159-1.85,4.159-4.088
					C246.591,35.212,244.823,33.787,242.491,33.787z M242.727,41.221c-1.873,0-3.275-1.461-3.275-3.794
					c0-2.18,1.249-3.263,2.98-3.263c1.638,0,3.099,1.261,3.099,3.664C245.53,40.726,243.657,41.221,242.727,41.221z M256.212,33.928
					c-0.425,0-0.767,0.023-0.885,0.023c-0.117,0-0.612-0.023-1.083-0.023c-0.118,0-0.201,0.012-0.201,0.071
					c0,0.036,0.013,0.094,0.083,0.094c0.083,0,0.318,0.012,0.507,0.047c0.317,0.059,0.376,0.283,0.389,0.931l0.105,5.019
					c-0.317-0.33-1.425-1.52-2.45-2.58c-1.603-1.65-3.11-3.252-3.275-3.417c-0.106-0.106-0.283-0.307-0.4-0.307
					c-0.083,0-0.142,0.106-0.142,0.507v5.738c0,0.907-0.035,1.178-0.295,1.249c-0.152,0.047-0.341,0.059-0.424,0.059
					c-0.047,0-0.082,0.035-0.082,0.083c0,0.07,0.059,0.082,0.165,0.082c0.471,0,0.907-0.036,1.001-0.036
					c0.095,0,0.507,0.036,1.096,0.036c0.117,0,0.188-0.023,0.188-0.082c0-0.048-0.035-0.083-0.083-0.083
					c-0.094,0-0.329-0.012-0.518-0.059c-0.283-0.071-0.377-0.318-0.401-1.143l-0.117-4.725c0.318,0.354,1.484,1.579,2.686,2.839
					c1.097,1.143,2.593,2.616,2.698,2.71c0.577,0.53,0.684,0.613,0.789,0.613c0.071,0,0.083-0.059,0.083-0.719l0.023-5.867
					c0-0.601,0.024-0.801,0.365-0.872c0.118-0.023,0.2-0.023,0.248-0.023c0.07,0,0.117-0.059,0.117-0.094
					C256.399,33.94,256.317,33.928,256.212,33.928z M264.665,39.689c-0.07,0-0.083,0.036-0.106,0.142
					c-0.035,0.188-0.177,0.613-0.4,0.836c-0.412,0.413-0.931,0.472-1.709,0.472c-2.214,0-3.734-1.708-3.734-3.628
					c0-1.014,0.165-1.909,0.931-2.616c0.365-0.341,1.002-0.695,2.333-0.695c0.919,0,1.673,0.248,2.038,0.554
					c0.271,0.212,0.436,0.612,0.436,1.001c0,0.141,0.013,0.212,0.084,0.212c0.059,0,0.105-0.059,0.117-0.212
					c0.012-0.141,0.012-0.695,0.023-1.025c0.023-0.366,0.047-0.483,0.047-0.565c0-0.059-0.023-0.106-0.129-0.106
					c-0.343-0.011-0.672-0.082-1.061-0.153c-0.507-0.083-1.096-0.118-1.509-0.118c-1.59,0-2.532,0.472-3.157,1.072
					c-0.919,0.896-1.166,2.062-1.166,2.733c0,0.954,0.247,2.097,1.261,2.969c0.812,0.707,1.861,1.073,3.417,1.073
					c0.671,0,1.448-0.059,1.872-0.224c0.178-0.071,0.2-0.106,0.26-0.294c0.105-0.341,0.247-1.213,0.247-1.284
					S264.712,39.689,264.665,39.689z M269.056,41.339c-0.095,0-0.318-0.023-0.472-0.047c-0.307-0.047-0.342-0.235-0.378-0.53
					c-0.047-0.413-0.047-1.202-0.047-2.168v-1.767c0-1.556,0-1.838,0.012-2.156c0.024-0.354,0.082-0.495,0.366-0.554
					c0.117-0.023,0.188-0.023,0.259-0.023c0.035,0,0.082-0.047,0.082-0.083c0-0.059-0.047-0.083-0.165-0.083
					c-0.317,0-0.989,0.023-1.036,0.023c-0.059,0-0.707-0.023-1.049-0.023c-0.118,0-0.165,0.023-0.165,0.083
					c0,0.036,0.035,0.083,0.083,0.083c0.07,0,0.2,0.012,0.317,0.035c0.224,0.047,0.307,0.201,0.33,0.542
					c0.023,0.318,0.023,0.601,0.023,2.156v1.767c0,0.966-0.012,1.755-0.059,2.168c-0.035,0.294-0.071,0.483-0.271,0.53
					c-0.094,0.024-0.224,0.047-0.317,0.047c-0.06,0-0.083,0.047-0.083,0.083c0,0.059,0.06,0.082,0.165,0.082
					c0.318,0,0.967-0.036,1.025-0.036c0.047,0,0.719,0.036,1.295,0.036c0.118,0,0.166-0.036,0.166-0.082
					C269.138,41.386,269.114,41.339,269.056,41.339z M275.591,40.149c-0.059,0-0.082,0.036-0.105,0.153
					c-0.06,0.401-0.2,0.578-0.472,0.695c-0.271,0.106-0.766,0.106-1.036,0.106c-1.025,0-1.214-0.13-1.237-0.802
					c-0.012-0.2,0-1.366,0-1.708v-0.836c0-0.036,0.012-0.071,0.07-0.071c0.177,0,1.284,0.012,1.566,0.047
					c0.401,0.047,0.495,0.165,0.531,0.306c0.047,0.13,0.047,0.236,0.047,0.33c0,0.059,0.023,0.094,0.07,0.094
					c0.071,0,0.094-0.105,0.094-0.188c0-0.071,0.024-0.448,0.048-0.648c0.023-0.33,0.082-0.495,0.082-0.554
					c0-0.059-0.023-0.082-0.059-0.082s-0.082,0.059-0.153,0.13c-0.105,0.105-0.259,0.117-0.506,0.141
					c-0.236,0.023-1.603,0.023-1.732,0.023c-0.059,0-0.059-0.035-0.059-0.106v-2.721c0-0.07,0.012-0.106,0.059-0.106
					c0.118,0,1.319,0.011,1.496,0.036c0.565,0.07,0.672,0.141,0.742,0.306c0.048,0.118,0.06,0.283,0.06,0.354
					c0,0.083,0.022,0.129,0.082,0.129c0.047,0,0.082-0.059,0.094-0.106c0.024-0.118,0.047-0.565,0.06-0.66
					c0.023-0.283,0.082-0.4,0.082-0.471c0-0.047-0.011-0.094-0.047-0.094c-0.048,0-0.095,0.035-0.142,0.047
					c-0.082,0.012-0.271,0.047-0.471,0.059c-0.236,0.012-2.404,0-2.475,0c-0.059,0-0.73-0.023-1.201-0.023
					c-0.118,0-0.165,0.023-0.165,0.083c0,0.036,0.047,0.083,0.082,0.083c0.095,0,0.271,0.012,0.354,0.023
					c0.342,0.047,0.4,0.212,0.424,0.554c0.024,0.318,0.024,0.601,0.024,2.156v1.767c0,0.966,0,1.755-0.06,2.168
					c-0.047,0.294-0.07,0.495-0.271,0.53c-0.095,0.012-0.224,0.047-0.318,0.047c-0.059,0-0.082,0.047-0.082,0.083
					c0,0.059,0.059,0.082,0.164,0.082c0.166,0,0.4-0.012,0.601-0.023c0.225-0.012,0.425-0.012,0.448-0.012
					c0.153,0,0.424,0,0.86,0.024c0.424,0.012,1.025,0.035,1.803,0.035c0.4,0,0.507,0,0.577-0.259
					c0.059-0.212,0.142-0.896,0.142-0.966C275.662,40.231,275.65,40.149,275.591,40.149z M285.154,41.339
					c-0.059,0-0.165,0-0.365-0.036c-0.259-0.035-0.601-0.129-1.155-0.695c-0.6-0.625-1.318-1.531-2.168-2.592
					c0.967-0.824,1.273-1.543,1.273-2.286c0-0.695-0.46-1.178-0.719-1.367c-0.542-0.376-1.272-0.436-1.933-0.436
					c-0.317,0-1.189,0.023-1.296,0.023c-0.059,0-0.754-0.023-1.226-0.023c-0.117,0-0.164,0.023-0.164,0.083
					c0,0.036,0.047,0.083,0.082,0.083c0.095,0,0.271,0.012,0.354,0.023c0.341,0.047,0.4,0.212,0.424,0.554
					c0.023,0.318,0.023,0.601,0.023,2.156v1.767c0,0.966,0,1.755-0.059,2.168c-0.048,0.294-0.07,0.483-0.271,0.53
					c-0.094,0.024-0.224,0.047-0.317,0.047c-0.059,0-0.082,0.047-0.082,0.083c0,0.059,0.059,0.082,0.164,0.082
					c0.318,0,1.014-0.036,1.025-0.036c0.047,0,0.707,0.036,1.272,0.036c0.118,0,0.165-0.036,0.165-0.082
					c0-0.036-0.012-0.083-0.083-0.083c-0.094,0-0.318-0.023-0.459-0.047c-0.318-0.047-0.377-0.235-0.413-0.53
					c-0.047-0.413-0.047-1.19-0.047-2.156V38.37c0-0.059,0.023-0.083,0.071-0.083l1.319,0.023c0.071,0,0.094,0.012,0.142,0.059
					c0.224,0.271,0.684,0.918,1.118,1.461c0.59,0.754,0.967,1.237,1.415,1.472c0.259,0.142,0.518,0.201,1.107,0.201h0.647
					c0.188,0,0.248-0.023,0.248-0.082C285.249,41.386,285.213,41.339,285.154,41.339z M281.172,37.781
					c-0.247,0.165-0.529,0.176-0.777,0.176c-0.459,0-0.989-0.071-1.143-0.153c-0.048-0.036-0.071-0.071-0.071-0.13v-3.216
					c0-0.059,0.035-0.095,0.083-0.118c0.105-0.023,0.436-0.059,0.742-0.059c1.106,0,1.791,0.719,1.791,1.967
					C281.797,37.015,281.525,37.545,281.172,37.781z M292.596,37.746c-0.317,0-0.966,0.023-1.013,0.023
					c-0.059,0-0.755-0.023-1.226-0.023c-0.118,0-0.165,0.012-0.165,0.082c0,0.036,0.047,0.083,0.082,0.083
					c0.095,0,0.271,0.012,0.354,0.023c0.425,0.082,0.448,0.201,0.448,1.013v1.732c0,0.188-0.083,0.236-0.213,0.306
					c-0.271,0.153-0.754,0.188-1.118,0.188c-0.955,0-1.826-0.283-2.651-1.048c-0.365-0.342-1.096-1.355-1.096-2.769
					c0-1.167,0.424-2.062,1.024-2.521c0.79-0.601,1.544-0.647,2.168-0.647c1.344,0,2.133,0.4,2.393,0.777
					c0.165,0.235,0.224,0.53,0.235,0.66c0,0.094,0.012,0.153,0.07,0.153c0.071,0,0.118-0.047,0.118-0.212
					c0-1.002,0.059-1.272,0.059-1.414c0-0.047-0.023-0.095-0.129-0.095c-0.26,0-0.625-0.059-0.837-0.106
					c-0.2-0.047-0.931-0.165-1.591-0.165c-0.789,0-1.825,0.071-2.756,0.637c-0.92,0.554-1.732,1.685-1.732,3.287
					c0,1.249,0.601,2.321,1.236,2.851c1.155,0.978,2.628,1.073,3.418,1.073c0.6,0,1.543-0.106,2.203-0.448
					c0.129-0.07,0.141-0.082,0.141-0.542v-1.119c0-0.424,0-0.719,0.012-1.036c0.023-0.354,0.106-0.507,0.389-0.554
					c0.118-0.023,0.188-0.023,0.26-0.023c0.035,0,0.082-0.047,0.082-0.083C292.761,37.757,292.714,37.746,292.596,37.746z
					 M298.93,40.149c-0.06,0-0.083,0.036-0.106,0.153c-0.059,0.401-0.2,0.578-0.471,0.695c-0.271,0.106-0.767,0.106-1.037,0.106
					c-1.025,0-1.214-0.13-1.237-0.802c-0.012-0.2,0-1.366,0-1.708v-0.836c0-0.036,0.012-0.071,0.07-0.071
					c0.178,0,1.284,0.012,1.567,0.047c0.4,0.047,0.495,0.165,0.53,0.306c0.047,0.13,0.047,0.236,0.047,0.33
					c0,0.059,0.023,0.094,0.071,0.094c0.07,0,0.094-0.105,0.094-0.188c0-0.071,0.024-0.448,0.048-0.648
					c0.023-0.33,0.081-0.495,0.081-0.554c0-0.059-0.022-0.082-0.058-0.082c-0.036,0-0.083,0.059-0.153,0.13
					c-0.106,0.105-0.26,0.117-0.507,0.141c-0.235,0.023-1.603,0.023-1.732,0.023c-0.059,0-0.059-0.035-0.059-0.106v-2.721
					c0-0.07,0.012-0.106,0.059-0.106c0.118,0,1.32,0.011,1.497,0.036c0.564,0.07,0.671,0.141,0.742,0.306
					c0.047,0.118,0.059,0.283,0.059,0.354c0,0.083,0.023,0.129,0.082,0.129c0.048,0,0.083-0.059,0.095-0.106
					c0.023-0.118,0.047-0.565,0.059-0.66c0.023-0.283,0.082-0.4,0.082-0.471c0-0.047-0.011-0.094-0.046-0.094
					c-0.048,0-0.095,0.035-0.142,0.047c-0.082,0.012-0.271,0.047-0.472,0.059c-0.235,0.012-2.403,0-2.474,0
					c-0.06,0-0.73-0.023-1.202-0.023c-0.118,0-0.165,0.023-0.165,0.083c0,0.036,0.047,0.083,0.083,0.083
					c0.094,0,0.271,0.012,0.354,0.023c0.341,0.047,0.4,0.212,0.424,0.554c0.023,0.318,0.023,0.601,0.023,2.156v1.767
					c0,0.966,0,1.755-0.059,2.168c-0.048,0.294-0.071,0.495-0.271,0.53c-0.095,0.012-0.224,0.047-0.317,0.047
					c-0.06,0-0.083,0.047-0.083,0.083c0,0.059,0.059,0.082,0.165,0.082c0.165,0,0.4-0.012,0.601-0.023
					c0.224-0.012,0.424-0.012,0.448-0.012c0.153,0,0.424,0,0.86,0.024c0.424,0.012,1.024,0.035,1.803,0.035
					c0.399,0,0.506,0,0.576-0.259c0.059-0.212,0.142-0.896,0.142-0.966C299,40.231,298.988,40.149,298.93,40.149z"/>
			</g>
		</g>
		<g id="Shape_2">
			<g>
				<path fill-rule="evenodd" clip-rule="evenodd" fill="#FFFFFF" d="M180.963,17.433c-2.437-0.898-5.516-0.898-5.516-0.898
					c-5.13,0-6.798,4.233-6.798,4.233c2.053-1.796,5.9-2.181,8.979-1.026c3.079,1.155,4.874,0.898,4.874,0.898
					c4.746,0,6.285-5.9,6.285-5.9C186.991,17.562,183.4,18.331,180.963,17.433z"/>
			</g>
		</g>
		<g id="Shape_2_copy">
			<g>
				<path fill-rule="evenodd" clip-rule="evenodd" fill="#BA1010" d="M180.229,18.166c-2.437-0.898-5.515-0.898-5.515-0.898
					c-5.131,0-6.798,4.232-6.798,4.232c2.052-1.795,5.9-2.18,8.979-1.026s4.874,0.898,4.874,0.898c4.745,0,6.284-5.9,6.284-5.9
					C186.259,18.294,182.667,19.064,180.229,18.166z"/>
			</g>
		</g>
		<g id="Shape_2_copy_2">
			<g>
				<path fill-rule="evenodd" clip-rule="evenodd" fill="#FFFFFF" d="M78.66,14.3c-2.646-0.975-5.988-0.975-5.988-0.975
					c-5.57,0-7.381,4.596-7.381,4.596c2.228-1.95,6.406-2.368,9.748-1.114c3.342,1.253,5.292,0.975,5.292,0.975
					c5.153,0,6.824-6.406,6.824-6.406C85.206,14.439,81.307,15.274,78.66,14.3z"/>
			</g>
		</g>
		<g id="Shape_2_copy_3">
			<g>
				<path fill-rule="evenodd" clip-rule="evenodd" fill="#BA1010" d="M77.865,15.095c-2.646-0.975-5.988-0.975-5.988-0.975
					c-5.571,0-7.381,4.596-7.381,4.596c2.228-1.95,6.406-2.368,9.748-1.114s5.292,0.975,5.292,0.975
					c5.153,0,6.824-6.406,6.824-6.406C84.411,15.234,80.511,16.07,77.865,15.095z"/>
			</g>
		</g>
	</g>
	<g id="Shape_3">
		<g>
			<rect x="53.406" y="1.766" fill-rule="evenodd" clip-rule="evenodd" fill="#4D4D4D" width="1.084" height="43.912"/>
		</g>
	</g>
	<g id="HA_2_">
		<g id="HA_4_">
			<g>
				<path fill="#4D4D4D" d="M12.709,32.132c-0.375,0-0.927-0.05-1.278-0.101c-0.751-0.1-0.902-0.651-0.977-1.353
					c-0.065-0.561-0.096-1.37-0.111-2.338h-0.024V16.632h0.022c0.007-0.446,0.019-0.734,0.038-1.037
					c0.05-0.877,0.25-1.303,0.927-1.428c0.301-0.05,0.526-0.075,0.727-0.075c0.301,0,0.451-0.05,0.451-0.226
					s-0.175-0.226-0.526-0.226c-0.977,0-2.556,0.075-3.157,0.075c-0.677,0-2.255-0.075-3.608-0.075c-0.351,0-0.526,0.05-0.526,0.226
					s0.15,0.226,0.426,0.226c0.351,0,0.776,0.025,0.977,0.075c0.827,0.175,1.028,0.576,1.078,1.428
					c0.05,0.802,0.05,1.503,0.05,5.312v4.41c0,2.306,0,4.285-0.125,5.337c-0.1,0.727-0.225,1.278-0.727,1.378
					c-0.225,0.05-0.526,0.101-0.902,0.101c-0.301,0-0.401,0.075-0.401,0.2c0,0.176,0.175,0.25,0.501,0.25
					c1.002,0,2.581-0.075,3.157-0.075c0.701,0,2.28,0.075,3.909,0.075c0.301,0,0.501-0.075,0.501-0.25
					C13.11,32.208,12.984,32.132,12.709,32.132z M43.126,32.132c-0.301,0-0.677-0.025-1.052-0.101
					c-0.526-0.125-1.253-0.476-2.205-2.731c-1.604-3.809-5.612-14.031-6.214-15.409c-0.25-0.577-0.401-0.802-0.626-0.802
					c-0.251,0-0.401,0.276-0.702,1.002l-6.289,15.735c-0.438,1.094-0.856,1.882-1.723,2.164c-0.631-0.147-0.787-0.657-0.857-1.312
					c-0.125-1.078-0.125-3.057-0.125-5.362v-4.41c0-3.808,0-4.51,0.05-5.312c0.05-0.877,0.25-1.303,0.927-1.428
					c0.301-0.05,0.526-0.075,0.727-0.075c0.301,0,0.451-0.05,0.451-0.226s-0.175-0.226-0.526-0.226
					c-0.977,0-2.556,0.075-3.157,0.075c-0.676,0-2.255-0.075-3.608-0.075c-0.351,0-0.526,0.05-0.526,0.226s0.15,0.226,0.426,0.226
					c0.351,0,0.777,0.025,0.978,0.075c0.827,0.175,1.027,0.576,1.077,1.428c0.05,0.802,0.05,1.503,0.05,5.312v0.526
					c0,0.081-0.034,0.121-0.076,0.146v1.409c0.042,0.023,0.076,0.06,0.076,0.124v2.205c0,2.306,0,4.285-0.125,5.337
					c-0.101,0.727-0.226,1.278-0.727,1.378c-0.226,0.05-0.526,0.101-0.902,0.101c-0.301,0-0.401,0.075-0.401,0.2
					c0,0.176,0.175,0.25,0.526,0.25c0.978,0,2.556-0.075,3.132-0.075c0.288,0,0.728,0.013,1.254,0.027
					c0.078,0.035,0.192,0.047,0.35,0.047c0.347,0,0.697-0.005,1.032-0.013c0.411,0.008,0.839,0.013,1.273,0.013
					c0.158,0,0.285-0.022,0.374-0.067c0.123-0.004,0.226-0.007,0.278-0.007c0.777,0,1.854,0.075,2.656,0.075
					c0.276,0,0.426-0.05,0.426-0.25c0-0.15-0.075-0.2-0.375-0.2h-0.376c-0.777,0-1.002-0.326-1.002-0.777
					c0-0.301,0.125-0.902,0.376-1.528l0.082-0.217l-0.022,0l3.903-10.538h0.09l0.232-0.62c0.025-0.101,0.075-0.226,0.15-0.226
					c0.075,0,0.101,0.125,0.125,0.226l1.111,3.049l3.17,8.304l-0.073-0.001l0.652,1.728c0.125,0.301-0.05,0.526-0.225,0.577
					c-0.251,0.025-0.351,0.075-0.351,0.225c0,0.176,0.301,0.176,0.751,0.201c2.004,0.05,3.833,0.05,4.736,0.05
					c0.927,0,1.152-0.05,1.152-0.25C43.452,32.157,43.327,32.132,43.126,32.132z"/>
			</g>
		</g>
		<g id="Shape_5_3_">
			<g>
				<path fill="#FFFFFF" d="M26.814,22.575c-14.115-3.257-17.644,3.8-17.644,3.8c5.157-4.208,15.336-1.086,16.829-0.408
					c1.493,0.679,4.75,0.815,4.75,0.815c5.941,0,8.642-4.062,9.757-6.631C39.295,22.178,35.966,24.687,26.814,22.575z"/>
			</g>
		</g>
		<g id="Shape_5_copy_3_">
			<g>
				<path fill="#BA1010" d="M26.271,23.118c-14.115-3.257-17.644,3.8-17.644,3.8c5.158-4.207,15.337-1.085,16.83-0.407
					c1.493,0.679,4.75,0.814,4.75,0.814c5.942,0,8.643-4.062,9.757-6.63C38.752,22.72,35.423,25.23,26.271,23.118z M39.964,20.693
					c0,0,0,0.001,0,0.001C39.964,20.694,39.964,20.693,39.964,20.693L39.964,20.693z"/>
			</g>
		</g>
	</g>
	<g id="Shape_4">
		<g>
			<path fill-rule="evenodd" clip-rule="evenodd" fill="#4D4D4D" d="M23.79,0C10.651,0,0,10.651,0,23.79
				C0,36.929,10.651,47.58,23.79,47.58c13.139,0,23.79-10.651,23.79-23.791C47.58,10.651,36.929,0,23.79,0z M23.826,46.025
				c-12.3,0-22.271-9.971-22.271-22.27c0-12.3,9.971-22.271,22.271-22.271c12.299,0,22.27,9.971,22.27,22.271
				C46.096,36.054,36.125,46.025,23.826,46.025z"/>
		</g>
	</g>
</g>
</svg>
