<?xml version="1.0" encoding="utf-8"?>
<!-- Generator: Adobe Illustrator 16.0.0, SVG Export Plug-In . SVG Version: 6.00 Build 0)  -->
<!DOCTYPE svg PUBLIC "-//W3C//DTD SVG 1.1//EN" "http://www.w3.org/Graphics/SVG/1.1/DTD/svg11.dtd">
<svg version="1.1" id="Layer_1" xmlns="http://www.w3.org/2000/svg" xmlns:xlink="http://www.w3.org/1999/xlink" x="0px" y="0px"
	 width="143.513px" height="143.513px" viewBox="0 0 143.513 143.513" enable-background="new 0 0 143.513 143.513"
	 xml:space="preserve">
<g id="HA_copy">
	<g>
		<path fill="#F4F4F4" d="M39.628,95.465c-1.117,0-2.757-0.149-3.8-0.299c-2.235-0.298-2.683-1.937-2.906-4.023
			c-0.194-1.669-0.286-4.07-0.331-6.953H32.52V49.37h0.066c0.021-1.326,0.056-2.184,0.112-3.083
			c0.149-2.608,0.745-3.875,2.758-4.248c0.894-0.148,1.564-0.223,2.16-0.223c0.895,0,1.341-0.149,1.341-0.671
			s-0.521-0.671-1.564-0.671c-2.905,0-7.601,0.224-9.389,0.224c-2.012,0-6.706-0.224-10.729-0.224c-1.043,0-1.564,0.149-1.564,0.671
			s0.447,0.671,1.267,0.671c1.043,0,2.31,0.074,2.906,0.223c2.458,0.522,3.055,1.714,3.204,4.248
			c0.148,2.384,0.148,4.471,0.148,15.796v13.114c0,6.855,0,12.741-0.373,15.871c-0.297,2.161-0.67,3.8-2.16,4.098
			c-0.67,0.149-1.564,0.299-2.683,0.299c-0.895,0-1.192,0.224-1.192,0.596c0,0.521,0.521,0.745,1.49,0.745
			c2.98,0,7.675-0.224,9.389-0.224c2.086,0,6.781,0.224,11.624,0.224c0.895,0,1.49-0.224,1.49-0.745
			C40.82,95.688,40.447,95.465,39.628,95.465z M130.086,95.465c-0.895,0-2.012-0.075-3.13-0.299
			c-1.564-0.372-3.726-1.415-6.557-8.121c-4.77-11.326-16.691-41.727-18.479-45.825c-0.745-1.714-1.192-2.385-1.862-2.385
			c-0.746,0-1.192,0.82-2.087,2.981L79.269,88.609c-1.314,3.286-2.575,5.64-5.205,6.457c-1.843-0.451-2.262-1.987-2.47-3.924
			c-0.372-3.204-0.372-9.09-0.372-15.945V62.083c0-11.325,0-13.412,0.148-15.796c0.149-2.608,0.745-3.875,2.757-4.248
			c0.895-0.148,1.565-0.223,2.161-0.223c0.895,0,1.341-0.149,1.341-0.671s-0.521-0.671-1.564-0.671c-2.906,0-7.6,0.224-9.389,0.224
			c-2.012,0-6.706-0.224-10.729-0.224c-1.043,0-1.564,0.149-1.564,0.671s0.447,0.671,1.267,0.671c1.043,0,2.31,0.074,2.905,0.223
			c2.459,0.522,3.056,1.714,3.205,4.248c0.148,2.384,0.148,4.471,0.148,15.796v1.564c0,0.243-0.099,0.383-0.227,0.457v4.149
			c0.128,0.068,0.227,0.192,0.227,0.386v6.558c0,6.855,0,12.741-0.372,15.871c-0.299,2.161-0.671,3.8-2.161,4.098
			c-0.671,0.149-1.564,0.299-2.683,0.299c-0.894,0-1.192,0.224-1.192,0.596c0,0.521,0.521,0.745,1.564,0.745
			c2.906,0,7.601-0.224,9.314-0.224c0.857,0,2.16,0.038,3.728,0.082c0.233,0.104,0.573,0.142,1.041,0.142
			c1.03,0,2.075-0.016,3.071-0.039c1.221,0.023,2.496,0.039,3.784,0.039c0.471,0,0.851-0.066,1.112-0.201
			c0.381-0.014,0.666-0.022,0.825-0.022c2.31,0,5.514,0.224,7.897,0.224c0.82,0,1.267-0.149,1.267-0.745
			c0-0.447-0.223-0.596-1.117-0.596h-1.118c-2.31,0-2.98-0.969-2.98-2.311c0-0.894,0.373-2.682,1.118-4.545l0.244-0.646
			l-0.065-0.002l11.606-31.338h0.267l0.689-1.843c0.075-0.298,0.224-0.671,0.447-0.671s0.298,0.373,0.373,0.671l3.306,9.074
			l9.426,24.687l-0.216-0.005l1.939,5.139c0.372,0.895-0.149,1.565-0.671,1.714c-0.745,0.075-1.043,0.224-1.043,0.671
			c0,0.521,0.894,0.521,2.235,0.596c5.961,0.149,11.4,0.149,14.083,0.149c2.757,0,3.427-0.149,3.427-0.745
			C131.054,95.539,130.682,95.465,130.086,95.465z"/>
	</g>
</g>
<g id="Shape_5_copy_3">
	<g>
		<path fill="#B92025" d="M79.959,68.656c-41.976-9.688-52.47,11.301-52.47,11.301c15.337-12.512,45.608-3.229,50.048-1.211
			c4.44,2.019,14.127,2.422,14.127,2.422c17.653,0,25.689-12.062,29.011-19.701C117.062,67.489,107.148,74.931,79.959,68.656z
			 M120.684,61.446c-0.003,0.007-0.006,0.014-0.009,0.021c0.004-0.007,0.008-0.013,0.012-0.02L120.684,61.446z"/>
	</g>
</g>
<g id="Shape_4_copy">
	<g>
		<path fill-rule="evenodd" clip-rule="evenodd" fill="#F4F4F4" d="M71.757,0C32.127,0,0,32.126,0,71.756
			s32.127,71.757,71.757,71.757s71.756-32.127,71.756-71.757S111.387,0,71.757,0z M71.863,138.821
			c-37.098,0-67.172-30.074-67.172-67.172S34.766,4.478,71.863,4.478s67.172,30.074,67.172,67.172S108.961,138.821,71.863,138.821z"
			/>
	</g>
</g>
</svg>
