<?xml version="1.0" encoding="utf-8"?>
<!-- Generator: Adobe Illustrator 17.0.0, SVG Export Plug-In . SVG Version: 6.00 Build 0)  -->
<!DOCTYPE svg PUBLIC "-//W3C//DTD SVG 1.1//EN" "http://www.w3.org/Graphics/SVG/1.1/DTD/svg11.dtd">
<svg version="1.1" id="Layer_1" xmlns="http://www.w3.org/2000/svg" xmlns:xlink="http://www.w3.org/1999/xlink" x="0px" y="0px"
	 width="185px" height="57px" viewBox="0 0 185 57" enable-background="new 0 0 185 57" xml:space="preserve">
<g>
	<path fill="none" d="M193.833,0.022h-8.781H1.781H-7v8.781v49.746v8.781h8.781h183.272h8.781v-8.781V8.803V0.022H193.833z"/>
</g>
<g>
	<path fill="#7E7E7E" d="M54.335,35.037V16.688h1.613v7.275v18.349h-1.613V35.037z"/>
	<path fill="#7E7E7E" d="M75.694,31.525v10.823H74.01V31.919c0-1.553-0.562-2.867-1.684-3.942c-1.123-1.075-2.461-1.649-4.014-1.72
		c-0.024,0-0.048,0-0.072,0s-0.042,0-0.054,0s-0.03,0-0.054,0c-1.673,0-3.106,0.622-4.3,1.864c-1.195,1.243-1.792,2.712-1.792,4.408
		v9.783h-1.684V31.955c0-2.126,0.824-3.894,2.473-5.304c1.649-1.41,3.524-2.102,5.626-2.079c0.048,0,0.095,0,0.143,0
		s0.095,0,0.143,0c1.481,0.12,2.873,0.741,4.175,1.864c1.302,1.123,2.168,2.342,2.598,3.655c0.072,0.239,0.126,0.478,0.161,0.717
		c0.036,0.239,0.054,0.478,0.054,0.717C75.729,31.525,75.694,31.525,75.694,31.525z"/>
	<path fill="#7E7E7E" d="M87.592,16.043v1.577c-0.024,0-0.054,0-0.09,0s-0.09-0.012-0.161-0.036c-0.048,0-0.102,0-0.161,0
		c-0.06,0-0.125,0-0.197,0c-0.311,0-0.687,0.03-1.129,0.089c-0.442,0.06-0.89,0.185-1.344,0.376
		c-0.263,0.12-0.514,0.251-0.753,0.394s-0.466,0.311-0.681,0.502c-0.693,0.621-1.159,1.296-1.398,2.025
		c-0.239,0.729-0.358,1.571-0.358,2.526v1.218h6.307v1.828h-6.236V42.31h-1.756v-0.896V23.067c0-0.98,0.167-1.935,0.502-2.867
		c0.334-0.932,0.908-1.768,1.72-2.509c0.358-0.334,0.753-0.609,1.183-0.824s0.884-0.394,1.362-0.538
		c0.454-0.119,0.896-0.209,1.326-0.269c0.43-0.059,0.824-0.09,1.183-0.09c0.143,0,0.274,0,0.394,0c0.119,0,0.227,0.013,0.323,0.036
		L87.592,16.043z"/>
	<path fill="#7E7E7E" d="M105.098,39.875c-1.756,1.744-3.865,2.616-6.326,2.616c-2.46,0.024-4.575-0.842-6.343-2.598
		c-1.768-1.756-2.652-3.864-2.652-6.325c0-2.484,0.901-4.617,2.706-6.397c1.804-1.779,3.936-2.646,6.397-2.598
		c2.437,0.024,4.521,0.92,6.254,2.688c1.732,1.768,2.599,3.87,2.599,6.307C107.732,36.029,106.854,38.131,105.098,39.875z
		 M91.497,33.532c0,0.024,0,0.042,0,0.053c0,0.013,0,0.03,0,0.054c0,2.007,0.728,3.745,2.186,5.214
		c1.457,1.469,3.189,2.192,5.196,2.168c2.007-0.047,3.703-0.806,5.089-2.276c1.385-1.469,2.054-3.207,2.007-5.214
		c-0.024-1.983-0.735-3.673-2.133-5.071c-1.398-1.397-3.088-2.108-5.071-2.132c-1.959,0-3.655,0.699-5.089,2.097
		c-1.434,1.397-2.174,3.088-2.222,5.071L91.497,33.532z"/>
	<path fill="#7E7E7E" d="M111.817,42.276v-12.4c0-0.765,0.155-1.457,0.466-2.079c0.31-0.621,0.669-1.147,1.075-1.577
		c0.454-0.478,1.033-0.848,1.738-1.111c0.705-0.262,1.475-0.394,2.312-0.394h2.294v1.577h-2.15c-0.526,0-1.01,0.066-1.452,0.197
		c-0.442,0.132-0.842,0.364-1.201,0.699c-0.573,0.454-0.967,0.974-1.182,1.559c-0.215,0.586-0.322,1.249-0.322,1.989v11.575
		L111.817,42.276z"/>
	<path fill="#7E7E7E" d="M124.001,42.384h-1.792V31.202c0-1.672,0.532-3.159,1.595-4.462c1.063-1.302,2.43-1.989,4.103-2.061
		c0.024,0,0.041,0,0.054,0c0.011,0,0.03,0,0.053,0c0.024,0,0.048,0,0.072,0c1.147,0,2.186,0.281,3.118,0.842
		c0.931,0.562,1.636,1.261,2.114,2.096c0.454-0.86,1.129-1.595,2.025-2.204c0.896-0.609,1.917-0.902,3.064-0.878
		c1.505,0.024,2.855,0.573,4.049,1.649c1.195,1.075,1.792,2.39,1.792,3.942v12.185h-1.684V31.31c0-1.242-0.353-2.365-1.057-3.369
		c-0.705-1.003-1.678-1.541-2.921-1.613c-0.024,0-0.06,0-0.108,0s-0.096,0-0.143,0c-1.218-0.024-2.228,0.418-3.028,1.326
		c-0.801,0.908-1.201,2.114-1.201,3.619v11.038h-1.649V30.987c0-1.242-0.418-2.329-1.254-3.261
		c-0.837-0.932-1.864-1.398-3.082-1.398c-0.024,0-0.048,0-0.071,0c-0.024,0-0.049,0-0.072,0c-1.242,0.048-2.228,0.58-2.957,1.595
		c-0.729,1.016-1.093,2.145-1.093,3.387L124.001,42.384z"/>
	<path fill="#7E7E7E" d="M156.47,24.823c0.907,0,1.707,0.102,2.401,0.305c0.693,0.203,1.35,0.627,1.971,1.272
		c0.072,0.072,0.137,0.138,0.197,0.197c0.059,0.06,0.113,0.126,0.162,0.197c0.406,0.478,0.704,0.98,0.896,1.505
		c0.191,0.526,0.287,1.135,0.287,1.828v12.256h-9.497c-1.577-0.024-2.903-0.651-3.978-1.881s-1.612-2.646-1.612-4.247
		c0-0.048,0-0.09,0-0.126s0-0.066,0-0.09c0.071-1.744,0.771-3.148,2.096-4.211c1.326-1.063,2.932-1.595,4.82-1.595h6.451
		c0-0.597-0.096-1.116-0.287-1.559c-0.192-0.442-0.49-0.854-0.896-1.236c-0.049-0.048-0.096-0.09-0.143-0.126
		c-0.049-0.036-0.084-0.066-0.108-0.09c-0.335-0.239-0.663-0.418-0.986-0.538c-0.322-0.119-0.686-0.179-1.093-0.179h-8.278V24.82
		h7.597V24.823z M153.782,31.991c-1.267,0-2.389,0.424-3.369,1.272c-0.98,0.848-1.469,1.906-1.469,3.172
		c0,1.29,0.4,2.347,1.201,3.172c0.8,0.824,2.072,1.237,3.817,1.237h6.737v-8.816L153.782,31.991z"/>
	<path fill="#7E7E7E" d="M166.361,34.177V15.828h1.756v9.067h6.056v1.756h-6.056v9.855c0,0.096,0,0.191,0,0.287
		c0,0.096,0,0.192,0,0.287c0.048,0.55,0.131,1.081,0.251,1.595c0.119,0.514,0.31,0.89,0.573,1.129
		c0.095,0.072,0.179,0.149,0.251,0.233c0.071,0.084,0.143,0.162,0.215,0.233c0.262,0.215,0.538,0.376,0.824,0.484
		c0.287,0.108,0.681,0.162,1.182,0.162h2.616v1.469h-3.01c-0.526-0.024-0.997-0.095-1.415-0.215
		c-0.418-0.119-0.818-0.322-1.201-0.609c-0.12-0.048-0.228-0.113-0.322-0.197c-0.096-0.083-0.192-0.161-0.287-0.233
		c-0.598-0.502-0.985-1.188-1.165-2.061c-0.179-0.872-0.268-1.786-0.268-2.741L166.361,34.177L166.361,34.177z"/>
</g>
<g>
	<path fill="#7E7E7E" d="M30.298,49.139v0.411h-3.637c-0.275,0-0.507,0.089-0.696,0.268s-0.28,0.387-0.273,0.625
		s0.115,0.441,0.324,0.607c0.21,0.167,0.451,0.25,0.726,0.25h1.463c0.81,0,1.435,0.197,1.875,0.589
		c0.44,0.393,0.67,0.881,0.69,1.465c0,0.006,0,0.013,0,0.022s0,0.019,0,0.031c0,0.589-0.246,1.097-0.737,1.523
		s-1.073,0.639-1.746,0.639h-3.07V55.22h2.936c0.57,0,1.07-0.176,1.499-0.527s0.647-0.765,0.654-1.242c0-0.012,0-0.024,0-0.036
		s0-0.024,0-0.036c-0.007-0.006-0.01-0.015-0.01-0.027s0-0.024,0-0.036c-0.034-0.465-0.242-0.85-0.623-1.157
		c-0.381-0.307-0.86-0.46-1.437-0.46H26.68c-0.502,0-0.876-0.125-1.123-0.375s-0.371-0.551-0.371-0.902
		c0-0.345,0.137-0.643,0.412-0.893c0.275-0.25,0.611-0.375,1.01-0.375L30.298,49.139z"/>
	<path fill="#7E7E7E" d="M36.088,52.39c0.014,0.721,0.328,1.373,0.943,1.956c0.615,0.584,1.513,0.872,2.694,0.866h1.504v0.366
		h-1.947c-1.037-0.006-1.904-0.32-2.601-0.942c-0.697-0.622-1.053-1.38-1.066-2.273c-0.007-0.923,0.366-1.696,1.118-2.318
		s1.708-0.933,2.869-0.933h1.628v0.42h-1.731c-0.914,0-1.71,0.276-2.39,0.826c-0.68,0.551-1.017,1.225-1.01,2.023L36.088,52.39z"/>
	<path fill="#7E7E7E" d="M45.957,53.73v-4.573h0.464v2.179h4.718v-2.179h0.443v1.84v4.573H51.15v-3.814h-4.708v3.831h-0.474
		L45.957,53.73z"/>
	<path fill="#7E7E7E" d="M60.092,49.032c1.058-0.006,1.964,0.314,2.72,0.96s1.137,1.428,1.144,2.344
		c0.014,0.905-0.352,1.687-1.097,2.345s-1.647,0.987-2.704,0.987c-1.044,0.006-1.942-0.32-2.694-0.978s-1.128-1.436-1.128-2.336
		c0-0.006,0-0.012,0-0.018s0-0.012,0-0.018s0-0.012,0-0.018s0-0.012,0-0.018c0.027-0.899,0.404-1.666,1.128-2.3
		c0.725-0.634,1.605-0.951,2.642-0.951h-0.011V49.032z M56.785,52.381c0.007,0.798,0.338,1.484,0.994,2.059s1.444,0.862,2.364,0.862
		c0.927,0,1.717-0.29,2.37-0.871c0.652-0.581,0.982-1.27,0.989-2.068c0-0.804-0.33-1.499-0.989-2.086
		c-0.659-0.587-1.453-0.877-2.38-0.871c-0.92,0-1.707,0.295-2.359,0.884c-0.653,0.589-0.975,1.286-0.968,2.09L56.785,52.381
		L56.785,52.381z"/>
	<path fill="#7E7E7E" d="M72.444,49.032c1.057-0.006,1.964,0.314,2.72,0.96c0.756,0.646,1.137,1.428,1.144,2.344
		c0.014,0.905-0.352,1.687-1.097,2.345s-1.647,0.987-2.704,0.987c-1.044,0.006-1.942-0.32-2.694-0.978s-1.128-1.436-1.128-2.336
		c0-0.006,0-0.012,0-0.018s0-0.012,0-0.018s0-0.012,0-0.018s0-0.012,0-0.018c0.027-0.899,0.404-1.666,1.128-2.3
		c0.725-0.634,1.605-0.951,2.642-0.951h-0.011V49.032z M69.137,52.381c0.007,0.798,0.338,1.484,0.994,2.059
		c0.656,0.575,1.444,0.862,2.364,0.862c0.927,0,1.717-0.29,2.37-0.871c0.652-0.581,0.982-1.27,0.989-2.068
		c0-0.804-0.33-1.499-0.989-2.086c-0.659-0.587-1.453-0.877-2.38-0.871c-0.92,0-1.707,0.295-2.359,0.884
		c-0.653,0.589-0.975,1.286-0.968,2.09L69.137,52.381L69.137,52.381z"/>
	<path fill="#7E7E7E" d="M81.263,53.676v-4.573h0.402v1.518v4.573h5.13v0.375h-0.258h-5.275v-1.893H81.263z"/>
	<path fill="#7E7E7E" d="M96.48,49.139v0.411h-3.637c-0.275,0-0.507,0.089-0.696,0.268c-0.189,0.179-0.28,0.387-0.273,0.625
		c0.007,0.238,0.115,0.441,0.324,0.607c0.21,0.167,0.451,0.25,0.726,0.25h1.463c0.81,0,1.436,0.197,1.875,0.589
		c0.44,0.393,0.67,0.881,0.691,1.465c0,0.006,0,0.013,0,0.022s0,0.019,0,0.031c0,0.589-0.246,1.097-0.737,1.523
		s-1.073,0.639-1.746,0.639H91.4V55.22h2.936c0.57,0,1.07-0.176,1.499-0.527s0.647-0.765,0.654-1.242c0-0.012,0-0.024,0-0.036
		s0-0.024,0-0.036c-0.007-0.006-0.01-0.015-0.01-0.027s0-0.024,0-0.036c-0.035-0.465-0.242-0.85-0.623-1.157
		c-0.382-0.307-0.861-0.46-1.437-0.46h-1.556c-0.502,0-0.876-0.125-1.123-0.375s-0.371-0.551-0.371-0.902
		c0-0.345,0.137-0.643,0.412-0.893s0.611-0.375,1.01-0.375L96.48,49.139z"/>
	<path fill="#7E7E7E" d="M105.463,49.032c1.058-0.006,1.964,0.314,2.72,0.96c0.755,0.646,1.137,1.428,1.144,2.344
		c0.014,0.905-0.352,1.687-1.098,2.345c-0.745,0.658-1.647,0.987-2.704,0.987c-1.044,0.006-1.942-0.32-2.694-0.978
		s-1.129-1.436-1.129-2.336c0-0.006,0-0.012,0-0.018s0-0.012,0-0.018s0-0.012,0-0.018s0-0.012,0-0.018
		c0.027-0.899,0.403-1.666,1.129-2.3c0.724-0.634,1.605-0.951,2.642-0.951h-0.01V49.032z M102.156,52.381
		c0.007,0.798,0.338,1.484,0.994,2.059c0.655,0.575,1.444,0.862,2.364,0.862c0.928,0,1.717-0.29,2.369-0.871
		c0.652-0.581,0.982-1.27,0.989-2.068c0-0.804-0.329-1.499-0.989-2.086c-0.659-0.587-1.452-0.877-2.379-0.871
		c-0.921,0-1.707,0.295-2.36,0.884c-0.652,0.589-0.975,1.286-0.969,2.09L102.156,52.381L102.156,52.381z"/>
	<path fill="#7E7E7E" d="M114.261,55.587V53.73v-4.573l0.412,0.009h5.275v0.447h-5.172v1.724h5.12v0.384h-5.12v3.867L114.261,55.587
		L114.261,55.587z"/>
	<path fill="#7E7E7E" d="M124.749,49.192h5.275v0.348h-2.555v1.474v4.573h-0.432v-1.473v-4.573h-2.535v-0.348L124.749,49.192
		L124.749,49.192z"/>
	<path fill="#7E7E7E" d="M135.649,50.05l1.411,4.573l1.926-3.349l1.999,3.287l0.257-0.849l1.38-4.573h0.485l-0.639,2.108
		l-1.371,4.564l-2.102-3.528l-2.102,3.501l-0.649-2.063l-1.432-4.573h0.546L135.649,50.05z"/>
	<path fill="#7E7E7E" d="M147.589,51.595c0-0.78,0.272-1.411,0.814-1.893c0.542-0.482,1.209-0.721,1.999-0.715
		c0.769,0.006,1.427,0.238,1.973,0.697s0.819,1.042,0.819,1.751v4.153h-0.453v-3.921h-4.698v3.903h-0.464L147.589,51.595z
		 M152.73,51.265c-0.027-0.542-0.278-0.996-0.752-1.362c-0.473-0.366-0.999-0.552-1.576-0.558c-0.02,0-0.041,0-0.061,0
		s-0.042,0-0.062,0c-0.529,0.03-1.018,0.228-1.468,0.594c-0.451,0.366-0.689,0.808-0.716,1.326
		C148.095,51.265,152.73,51.265,152.73,51.265z"/>
	<path fill="#7E7E7E" d="M161.652,51.711h-3.163v3.867h-0.515v-1.893v-4.573h3.986c0.611,0,1.051,0.119,1.319,0.357
		s0.402,0.551,0.402,0.938c0.007,0.31-0.13,0.589-0.413,0.84c-0.281,0.25-0.645,0.396-1.092,0.438l1.453,3.885h-0.474
		L161.652,51.711z M161.672,51.256c0.432,0,0.79-0.063,1.072-0.188c0.281-0.125,0.425-0.339,0.432-0.643
		c0.007-0.333-0.111-0.567-0.356-0.701c-0.243-0.134-0.548-0.201-0.912-0.201h-3.399v1.733H161.672z"/>
	<path fill="#7E7E7E" d="M168.791,49.103h5.275v0.429H169.1V51.3h4.966v0.447H169.1v3.421h4.966v0.411h-0.237h-5.274v-1.902v-4.573
		L168.791,49.103L168.791,49.103z"/>
</g>
<g>
	<g>
		<g>
			<path fill="#1E95D3" d="M36.191,19.302c9.694,0,12.348,1.749,12.348,8.135v5.978c0,6.386-2.654,8.135-12.348,8.135H34.54
				c-9.738,0-12.405-1.749-12.405-8.135v-5.978c0-6.386,2.666-8.135,12.405-8.135H36.191 M36.191,17.302H34.54
				c-9.508,0-14.405,1.708-14.405,10.135v5.978c0,8.427,4.896,10.135,14.405,10.135h1.651c9.451,0,14.348-1.708,14.348-10.135
				v-5.978C50.539,19.01,45.642,17.302,36.191,17.302L36.191,17.302z"/>
		</g>
	</g>
</g>
<g>
	<g>
		<g>
			<path fill="#FBB040" d="M17.837,8.763c9.693,0,12.348,1.749,12.348,8.135v5.978c0,6.386-2.654,8.135-12.348,8.135h-1.651
				c-9.738,0-12.405-1.749-12.405-8.135v-5.978c0-6.386,2.666-8.135,12.405-8.135L17.837,8.763 M17.837,6.763h-1.651
				c-9.508,0-14.405,1.708-14.405,10.135v5.978c0,8.426,4.896,10.135,14.405,10.135h1.651c9.451,0,14.348-1.708,14.348-10.135
				v-5.978C32.184,8.471,27.288,6.763,17.837,6.763L17.837,6.763z"/>
		</g>
	</g>
</g>
<g>
	<g>
		<path fill="#A4CE39" d="M30.082,2.825c9.693,0,12.348,1.749,12.348,8.135v5.978c0,6.386-2.654,8.135-12.348,8.135h-1.651
			c-9.738,0-12.405-1.749-12.405-8.135V10.96c0-6.386,2.666-8.135,12.405-8.135L30.082,2.825 M30.082,0.825h-1.651
			c-9.508,0-14.405,1.708-14.405,10.135v5.978c0,8.426,4.896,10.135,14.405,10.135h1.651c9.451,0,14.348-1.708,14.348-10.135V10.96
			C44.43,2.533,39.533,0.825,30.082,0.825L30.082,0.825z"/>
	</g>
</g>
</svg>
